<svg id="Layer_1" data-name="Layer 1" xmlns="http://www.w3.org/2000/svg" xmlns:xlink="http://www.w3.org/1999/xlink" viewBox="0 0 74 102.54"><defs><style>.cls-1,.cls-3{stroke:#32358f;stroke-width:2px;}.cls-1{fill:url(#linear-gradient);}.cls-2{font-size:28px;fill:#fff;font-family:Arial;font-weight:700;}.cls-3{stroke-linejoin:bevel;fill:url(#linear-gradient-2);}.cls-4{fill-rule:evenodd;fill:url(#linear-gradient-3);}</style><linearGradient id="linear-gradient" x1="37" y1="100" x2="37" y2="1" gradientUnits="userSpaceOnUse"><stop offset="0" stop-color="#58558f"/><stop offset="0.13" stop-color="#7674a5"/><stop offset="0.31" stop-color="#9a9abf"/><stop offset="0.49" stop-color="#b6b8d4"/><stop offset="0.66" stop-color="#cbcde3"/><stop offset="0.84" stop-color="#d7daec"/><stop offset="1" stop-color="#dbdeef"/></linearGradient><linearGradient id="linear-gradient-2" x1="59.15" y1="14.89" x2="51.55" y2="23.39" gradientUnits="userSpaceOnUse"><stop offset="0" stop-color="#58558f"/><stop offset="0.04" stop-color="#6a689c"/><stop offset="0.13" stop-color="#8d8eb6"/><stop offset="0.23" stop-color="#abafcc"/><stop offset="0.34" stop-color="#c4c9de"/><stop offset="0.45" stop-color="#d7deec"/><stop offset="0.59" stop-color="#e5ecf6"/><stop offset="0.74" stop-color="#edf4fb"/><stop offset="1" stop-color="#eff7fd"/></linearGradient><linearGradient id="linear-gradient-3" x1="310.8" y1="827.23" x2="353.62" y2="827.23" gradientUnits="userSpaceOnUse"><stop offset="0" stop-color="#352f7c"/><stop offset="0.08" stop-color="#413b86"/><stop offset="0.32" stop-color="#5c599c"/><stop offset="0.56" stop-color="#706ead"/><stop offset="0.78" stop-color="#7c7bb7"/><stop offset="1" stop-color="#807fba"/></linearGradient></defs><title>aac</title><polygon class="cls-1" points="46 1 73 28 73 100 1 100 1 1 46 1"/><text class="cls-2" transform="translate(6 92)">AAC</text><polygon class="cls-3" points="46 1 73 28 46 28 46 1"/><path class="cls-4" d="M310.8,820.6h6.51l13-10.13v33.29l-13-10.13H310.8v-13Zm26.05,10.28v2.9h0a7.74,7.74,0,0,0,3.2-.79h0a6.07,6.07,0,0,0,3.35-5.76h0a6.07,6.07,0,0,0-3.35-5.76h0a7.74,7.74,0,0,0-3.2-.79v2.9H337a4.81,4.81,0,0,1,2.13.67h0a3.16,3.16,0,0,1,1.41,3h0c0,2-.83,2.65-1.75,3.17h0a4.92,4.92,0,0,1-1.35.42h0l-0.44.05h-0.12Zm0,5.1v2.9h0a14.14,14.14,0,0,0,5.75-1.43h0c2.91-1.39,6-4.61,5.9-10.23h0c0.05-5.61-3-8.83-5.9-10.23h0a14.1,14.1,0,0,0-5.75-1.43v2.9h0l0.33,0h0a11,11,0,0,1,4.94,1.57h0c1.85,1.24,3.45,3.14,3.49,7.17h0c0,4.59-2.11,6.48-4.3,7.64h0a11.06,11.06,0,0,1-3.1,1h0c-0.43.07-.78,0.11-1,0.12h0l-0.33,0h0Zm0,5.11V844h0a20.44,20.44,0,0,0,8.3-2.07h0c4.19-2,8.51-6.52,8.46-14.69h0c0.05-8.17-4.27-12.66-8.46-14.69h0a20.41,20.41,0,0,0-8.3-2.06v2.89h0l0.55,0h0a17.26,17.26,0,0,1,7.75,2.47h0c2.95,1.94,5.53,5.1,5.56,11.37h0c-0.05,7.14-3.39,10.3-6.86,12.1h0a17.35,17.35,0,0,1-4.85,1.54h0c-0.67.11-1.22,0.17-1.6,0.19h0l-0.55,0h0Zm0-27.73h0Z" transform="translate(-295.13 -780.89)"/></svg>