<svg id="Layer_1" data-name="Layer 1" xmlns="http://www.w3.org/2000/svg" xmlns:xlink="http://www.w3.org/1999/xlink" viewBox="0 0 74 102.54"><defs><style>.cls-1,.cls-3{stroke:#036d6b;stroke-width:2px;}.cls-1{fill:url(#linear-gradient);}.cls-2{font-size:28px;fill:#fff;font-family:Arial;font-weight:700;}.cls-3{stroke-linejoin:bevel;fill:url(#linear-gradient-2);}.cls-4{fill:url(#linear-gradient-3);}</style><linearGradient id="linear-gradient" x1="37" y1="100" x2="37" y2="1" gradientUnits="userSpaceOnUse"><stop offset="0" stop-color="#006a69"/><stop offset="0.11" stop-color="#1b7f7e"/><stop offset="0.25" stop-color="#389493"/><stop offset="0.4" stop-color="#4fa5a4"/><stop offset="0.56" stop-color="#5fb1b0"/><stop offset="0.75" stop-color="#68b8b7"/><stop offset="1" stop-color="#6bbab9"/></linearGradient><linearGradient id="linear-gradient-2" x1="46" y1="28" x2="59.5" y2="14.5" gradientUnits="userSpaceOnUse"><stop offset="0" stop-color="#dcede8"/><stop offset="0.3" stop-color="#daece7"/><stop offset="0.44" stop-color="#d2e7e2"/><stop offset="0.55" stop-color="#c5dfdb"/><stop offset="0.64" stop-color="#b3d4d0"/><stop offset="0.73" stop-color="#9bc6c2"/><stop offset="0.8" stop-color="#7db4b1"/><stop offset="0.87" stop-color="#5a9f9d"/><stop offset="0.94" stop-color="#318785"/><stop offset="1" stop-color="#046c6b"/><stop offset="1" stop-color="#006a69"/></linearGradient><linearGradient id="linear-gradient-3" x1="333" y1="603.16" x2="333" y2="554.85" gradientUnits="userSpaceOnUse"><stop offset="0.01" stop-color="#068080"/><stop offset="0.59" stop-color="#035857"/><stop offset="1" stop-color="#003a38"/></linearGradient></defs><title>bmp</title><polygon class="cls-1" points="46 1 73 28 73 100 1 100 1 1 46 1"/><text class="cls-2" transform="translate(6 92)">BM<tspan x="43.54" y="0">P</tspan></text><polygon class="cls-3" points="46 1 73 28 46 28 46 1"/><path class="cls-4" d="M359.58,595.25c-1.56-.78-4.55-6.71-9.24-7.1-4-.33-9.06-1.78-11.95-2-3.54-5.91-9.51-15.25-14.56-20.12l13.76,0.72c-3.71-8.89-13.15-5.74-13.15-5.74l6.39-5.37c-8.25-3.33-11.58,4.72-11.58,4.72-8.52-4.72-12.88,3.33-12.88,3.33l8.8,0.65c-10.1,3-7.32,13-7.32,13l8.89-8.06c-1.95,4.35,2.32,7.6,2.32,7.6l2.59-10.93s9.32,10.73,12.22,21.61c-3.72,1.88-9.48,5.12-14,5.69-6.25.78-13.5,5-13.5,5v5h53.25Z" transform="translate(-295.98 -537.89)"/></svg>