<svg id="Layer_1" data-name="Layer 1" xmlns="http://www.w3.org/2000/svg" xmlns:xlink="http://www.w3.org/1999/xlink" viewBox="0 0 74 101"><defs><style>.cls-1,.cls-2{stroke:#0095d7;stroke-width:2px;}.cls-1{fill:url(#linear-gradient);}.cls-2{stroke-linejoin:bevel;fill:url(#linear-gradient-2);}.cls-3{font-size:26px;fill:#fff;font-family:Arial;font-weight:700;}.cls-4{fill:url(#linear-gradient-3);}</style><linearGradient id="linear-gradient" x1="37" y1="100" x2="37" y2="1" gradientUnits="userSpaceOnUse"><stop offset="0" stop-color="#00a5e6"/><stop offset="0.01" stop-color="#06a7e7"/><stop offset="0.1" stop-color="#33b6eb"/><stop offset="0.19" stop-color="#5cc3ef"/><stop offset="0.29" stop-color="#7ecef2"/><stop offset="0.4" stop-color="#9ad7f5"/><stop offset="0.51" stop-color="#afdef7"/><stop offset="0.64" stop-color="#bee3f9"/><stop offset="0.78" stop-color="#c7e6fa"/><stop offset="1" stop-color="#cae7fa"/></linearGradient><linearGradient id="linear-gradient-2" x1="59.42" y1="14.42" x2="50.42" y2="23.42" gradientUnits="userSpaceOnUse"><stop offset="0" stop-color="#009cde"/><stop offset="0.03" stop-color="#1ba7e2"/><stop offset="0.1" stop-color="#4ab9e8"/><stop offset="0.17" stop-color="#76caed"/><stop offset="0.24" stop-color="#9bd8f2"/><stop offset="0.32" stop-color="#bae4f6"/><stop offset="0.41" stop-color="#d3eef9"/><stop offset="0.5" stop-color="#e7f6fc"/><stop offset="0.61" stop-color="#f5fbfe"/><stop offset="0.75" stop-color="#fdfeff"/><stop offset="1" stop-color="#fff"/></linearGradient><linearGradient id="linear-gradient-3" x1="872.97" y1="542.56" x2="872.97" y2="602.79" gradientUnits="userSpaceOnUse"><stop offset="0" stop-color="#0098da"/><stop offset="1" stop-color="#5bbcf0"/></linearGradient></defs><title>dwg</title><polygon class="cls-1" points="46 1 73 28 73 100 1 100 1 1 46 1"/><polygon class="cls-2" points="46.02 0.82 73.02 27.82 46.02 27.82 46.02 0.82"/><text class="cls-3" transform="translate(5 91)">DWG</text><path class="cls-4" d="M838.63,547.47L856,560.68l1.79-2.36-19.76-15V547Zm35.84,23.6,5.46-7.15-1.19-.91-6.64-5.07,0.68,0.52,8.25-10.8,0-5.09-10.66,14.07-7.15-5.46-12.75,16.69,7.14,5.46-19.58,25.06-0.1,4.43,22-27.67-0.91-.71,8.1,6.19,5.46-7.15L908,600.33l0-3.66Zm-7.92,5.49-11.92-9.1,9.11-11.92,11.92,9.11Z" transform="translate(-836 -537.89)"/></svg>