<svg id="Layer_1" data-name="Layer 1" xmlns="http://www.w3.org/2000/svg" xmlns:xlink="http://www.w3.org/1999/xlink" viewBox="0 0 74 102.54"><defs><style>.cls-1,.cls-4{stroke:#7b909f;stroke-width:2px;}.cls-1{fill:url(#linear-gradient);}.cls-2{font-size:28px;fill:#576b79;font-family:Arial;font-weight:700;}.cls-3{fill:url(#linear-gradient-2);}.cls-4{stroke-linejoin:bevel;fill:url(#linear-gradient-3);}</style><linearGradient id="linear-gradient" x1="37" y1="100" x2="37" y2="1" gradientUnits="userSpaceOnUse"><stop offset="0" stop-color="#cad3da"/><stop offset="0.03" stop-color="#cfd7dd"/><stop offset="0.22" stop-color="#e4e9ec"/><stop offset="0.42" stop-color="#f3f5f7"/><stop offset="0.65" stop-color="#fcfdfd"/><stop offset="1" stop-color="#fff"/></linearGradient><linearGradient id="linear-gradient-2" x1="1141.94" y1="86.69" x2="1141.94" y2="35.55" gradientUnits="userSpaceOnUse"><stop offset="0" stop-color="#b5cbda"/><stop offset="1" stop-color="#576b79"/></linearGradient><linearGradient id="linear-gradient-3" x1="46" y1="28" x2="59.5" y2="14.5" gradientUnits="userSpaceOnUse"><stop offset="0" stop-color="#fff"/><stop offset="0.34" stop-color="#fdfdfd"/><stop offset="0.52" stop-color="#f5f6f7"/><stop offset="0.66" stop-color="#e7ebed"/><stop offset="0.77" stop-color="#d4dade"/><stop offset="0.88" stop-color="#bcc5cb"/><stop offset="0.98" stop-color="#9eabb4"/><stop offset="1" stop-color="#96a4ae"/></linearGradient></defs><title>exe</title><polygon class="cls-1" points="46 1 73 28 73 100 1 100 1 1 46 1"/><text class="cls-2" transform="translate(8 92)">EXE</text><path class="cls-3" d="M1162.14,58.61a20.41,20.41,0,0,0-.57-2.86l4.7-2.67-5-8.74-4.7,2.67a20.43,20.43,0,0,0-4.59-3.57l1.44-5.21-9.69-2.67-1.44,5.21a20.17,20.17,0,0,0-5.77.72l-2.67-4.7-8.75,5,2.67,4.7a20.52,20.52,0,0,0-3.57,4.58L1119,49.59l-2.67,9.69,5.21,1.44a20.24,20.24,0,0,0,.72,5.77l-4.7,2.67,5,8.75,4.7-2.67a20.46,20.46,0,0,0,4.59,3.57L1130.41,84l9.69,2.67,1.44-5.21a20.18,20.18,0,0,0,5.77-.72l2.67,4.7,8.75-5L1156,75.8a20.44,20.44,0,0,0,3.57-4.58l5.21,1.44,2.67-9.69-5.21-1.44A20.6,20.6,0,0,0,1162.14,58.61ZM1143,69.35a8.3,8.3,0,1,1,7.21-9.25A8.3,8.3,0,0,1,1143,69.35Z" transform="translate(-1106 -21.89)"/><polygon class="cls-4" points="46 1 73 28 46 28 46 1"/></svg>