<svg id="Layer_1" data-name="Layer 1" xmlns="http://www.w3.org/2000/svg" xmlns:xlink="http://www.w3.org/1999/xlink" viewBox="0 0 74.23 103.54"><defs><style>.cls-1,.cls-5{stroke:#b09a24;stroke-width:2px;}.cls-1{fill:url(#linear-gradient);}.cls-2{font-size:28px;font-family:Arial;font-weight:700;}.cls-2,.cls-4{fill:#95771c;}.cls-3,.cls-4{opacity:0.7;}.cls-3{fill:url(#linear-gradient-2);}.cls-5{stroke-linejoin:bevel;fill:url(#linear-gradient-3);}</style><linearGradient id="linear-gradient" x1="37" y1="100" x2="37" y2="1" gradientUnits="userSpaceOnUse"><stop offset="0" stop-color="#e3c32e"/><stop offset="0.07" stop-color="#e7cc4c"/><stop offset="0.19" stop-color="#edd97b"/><stop offset="0.31" stop-color="#f3e5a4"/><stop offset="0.44" stop-color="#f7eec5"/><stop offset="0.57" stop-color="#fbf6de"/><stop offset="0.7" stop-color="#fdfbf1"/><stop offset="0.84" stop-color="#fffefb"/><stop offset="1" stop-color="#fff"/></linearGradient><linearGradient id="linear-gradient-2" x1="420.11" y1="85.89" x2="420.11" y2="40.89" gradientUnits="userSpaceOnUse"><stop offset="0.01" stop-color="#997c1d"/><stop offset="0.53" stop-color="#d4bd2b"/><stop offset="0.64" stop-color="#c4ab27"/><stop offset="1" stop-color="#95771c"/></linearGradient><linearGradient id="linear-gradient-3" x1="46.53" y1="28" x2="60.03" y2="14.5" gradientUnits="userSpaceOnUse"><stop offset="0.01" stop-color="#fff"/><stop offset="0.25" stop-color="#fffefc"/><stop offset="0.39" stop-color="#fefcf4"/><stop offset="0.51" stop-color="#fcf8e6"/><stop offset="0.62" stop-color="#f9f2d2"/><stop offset="0.71" stop-color="#f5eab8"/><stop offset="0.8" stop-color="#f1e197"/><stop offset="0.88" stop-color="#ecd671"/><stop offset="0.96" stop-color="#e6ca46"/><stop offset="1" stop-color="#e3c32e"/></linearGradient></defs><title>jso</title><polygon class="cls-1" points="46 1 73 28 73 100 1 100 1 1 46 1"/><text class="cls-2" transform="translate(13.93 93)">ISO</text><path class="cls-3" d="M420.11,40.89a22.5,22.5,0,1,0,22.5,22.5A22.5,22.5,0,0,0,420.11,40.89Zm0,30.23a7.73,7.73,0,1,1,7.73-7.73A7.73,7.73,0,0,1,420.11,71.12Z" transform="translate(-383.11 -21.89)"/><path class="cls-4" d="M420.11,60.58a2.81,2.81,0,1,0,2.81,2.81A2.81,2.81,0,0,0,420.11,60.58Zm0,3.78a1,1,0,1,1,1-1A1,1,0,0,1,420.11,64.36Z" transform="translate(-383.11 -21.89)"/><path class="cls-4" d="M420.11,55a8.44,8.44,0,1,0,8.44,8.44A8.44,8.44,0,0,0,420.11,55Zm0,15.47a7,7,0,1,1,7-7A7,7,0,0,1,420.11,70.42Z" transform="translate(-383.11 -21.89)"/><polygon class="cls-5" points="46.53 1 73.53 28 46.53 28 46.53 1"/></svg>