<svg id="Layer_1" data-name="Layer 1" xmlns="http://www.w3.org/2000/svg" xmlns:xlink="http://www.w3.org/1999/xlink" viewBox="0 0 74 101"><defs><style>.cls-1,.cls-5{stroke:#7b909f;stroke-width:2px;}.cls-1{fill:url(#linear-gradient);}.cls-2{font-size:22px;fill:#576b79;font-family:Arial;font-weight:700;}.cls-3{letter-spacing:-1px;}.cls-4{fill-rule:evenodd;fill:url(#linear-gradient-2);}.cls-5{stroke-linejoin:bevel;fill:url(#linear-gradient-3);}</style><linearGradient id="linear-gradient" x1="37" y1="100" x2="37" y2="1" gradientUnits="userSpaceOnUse"><stop offset="0" stop-color="#cad3da"/><stop offset="0.03" stop-color="#cfd7dd"/><stop offset="0.22" stop-color="#e4e9ec"/><stop offset="0.42" stop-color="#f3f5f7"/><stop offset="0.65" stop-color="#fcfdfd"/><stop offset="1" stop-color="#fff"/></linearGradient><linearGradient id="linear-gradient-2" x1="512.03" y1="86.77" x2="512.03" y2="35.89" gradientUnits="userSpaceOnUse"><stop offset="0" stop-color="#b5cbda"/><stop offset="1" stop-color="#576b79"/></linearGradient><linearGradient id="linear-gradient-3" x1="46" y1="28" x2="59.5" y2="14.5" gradientUnits="userSpaceOnUse"><stop offset="0" stop-color="#fff"/><stop offset="0.34" stop-color="#fdfdfd"/><stop offset="0.52" stop-color="#f5f6f7"/><stop offset="0.66" stop-color="#e7ebed"/><stop offset="0.77" stop-color="#d4dade"/><stop offset="0.88" stop-color="#bcc5cb"/><stop offset="0.98" stop-color="#9eabb4"/><stop offset="1" stop-color="#96a4ae"/></linearGradient></defs><title>java</title><polygon class="cls-1" points="46 1 73 28 73 100 1 100 1 1 46 1"/><text class="cls-2" transform="translate(9 91)">J<tspan class="cls-3" x="12.24" y="0">AV</tspan><tspan x="39.53" y="0">A</tspan></text><path class="cls-4" d="M525.34,63.48c3-.9,5.88.95,5.64,3.72-0.28,3.24-4.41,4.84-6.88,5.64l0.06-.17L524,72.63c1.69-1.3,5.22-3,5-6.09-0.13-1.55-1.44-2.78-3.61-2.71l0.06-.17Zm-21.61.62,0.06-.17a11.72,11.72,0,0,0-3.61.9c-1.1.4-2.45,0.6-2.93,1.69,0.64,0.88,1.95.93,3.16,1.13a62.65,62.65,0,0,0,15.69,0c2.39-.3,4.53-0.59,5.64-1.58L521.56,66l0.06-.17A96.87,96.87,0,0,1,505.71,67c-1.82-.08-4-0.07-4.85-1.13,0.59-.91,1.95-1.07,2.93-1.58Zm26.65,18.77,0-.2c-6.78,3.37-17.73,3.76-27.54,3l0.06,0.17-0.06.17a64.94,64.94,0,0,0,14.33.56c4.94-.31,11-0.95,13.32-3.61ZM511.15,62.31l0.2,0C510.24,60,508.28,58.82,508,56a6.69,6.69,0,0,1,2.14-5.42c1.51-1.61,3.61-2.93,5.19-4.74,2.08-2.37,4.56-6,2.48-9.48l-0.17.06-0.17-.06A8.45,8.45,0,0,1,515,43.73a50.1,50.1,0,0,1-5.3,4.4c-2.09,1.69-4.87,3.89-4.18,7.11s3.68,5.18,5.53,7.22Zm10.64-15.59-0.06-.17c-3.63,1.37-9,3.48-9.48,7.67a6.6,6.6,0,0,0,1.24,4.51c0.54,0.8,1.49,1.39,1.81,2.48a4.27,4.27,0,0,1-.34,2.93l0.2,0,0.14,0.15c1.53-1.14,2.89-2.57,2.6-4.63s-2.57-3.37-2.82-5.19a3.76,3.76,0,0,1,.56-2.6c1.32-2.06,4.52-3.71,6.32-5.08ZM503.28,70.09l-0.06-.17c-0.74.37-2,.64-1.92,1.58s2,1.34,3,1.58c5,1.11,12.3.37,16-.79l-0.06-.21,0.17-.13c-0.41-.07-1-0.91-1.69-1a23.52,23.52,0,0,0-3.5.56,39.84,39.84,0,0,1-6.54.34c-1.64-.07-6.13-0.07-5.31-1.81Zm1.24,5.53,0.06-.17c-0.8.31-1.74,0.54-1.69,1.47s1.58,1.41,2.48,1.69c4.45,1.41,11.39.51,14.56-.9a3.51,3.51,0,0,0-1.24-.79c-0.48-.23-1-0.42-1.47-0.68a30.25,30.25,0,0,1-10,.56c-0.9-.1-2.29-0.14-2.48-1.13Zm23.81,4.29-0.17-.06c-0.18,1.34-1.71,1.54-2.82,1.81a37.32,37.32,0,0,1-4,.68c-6.56.84-15.37,1.19-21.78,0-1.24-.23-2.9-0.48-3.27-1.47,0.61-1,2-1.14,3.16-1.58l-0.06-.17,0.06-.17a11.14,11.14,0,0,0-4,1c-1,.44-2.27.9-2.48,2,0.8,1.07,2.4,1.14,3.84,1.35,8.91,1.33,21,1.55,28.67-1,1.37-.46,4.08-1.41,2.82-2.6ZM523.25,73a2.92,2.92,0,0,0,.9-0.34m1.24-9a1.78,1.78,0,0,0-.9.23M521.56,66c0.19,0,.33-0.15.51-0.17m-16.65-2.09c-0.56.13-1.13,0.2-1.69,0.34m-3,21.33a9.25,9.25,0,0,0,2.26.45m27.44-3a1.81,1.81,0,0,0,.44-0.48m-13.2-45.93c0-.19-0.08-0.38-0.11-0.56m-6.35,26.43a3.22,3.22,0,0,0,.6.66m3,1.64c0.1-.21.34-0.28,0.43-0.49m7.64-17.85a3.35,3.35,0,0,0-1,.45m-1.47,25.36a2,2,0,0,0,.28,0m-17-2.31c0,0.19-.32.13-0.34,0.34m1.24,5.53a0.75,0.75,0,0,0,.23-0.23m-3.89,3.67c-0.47,0-.94.05-1.41,0.06m28.89,0.79a0.93,0.93,0,0,0-.13-0.21l-0.09,0" transform="translate(-476 -21.89)"/><polygon class="cls-5" points="46 1 73 28 46 28 46 1"/></svg>