<svg id="Layer_1" data-name="Layer 1" xmlns="http://www.w3.org/2000/svg" xmlns:xlink="http://www.w3.org/1999/xlink" viewBox="0 0 74 102.54"><defs><style>.cls-1,.cls-5{stroke:#75277f;stroke-width:2px;}.cls-1{fill:url(#linear-gradient);}.cls-2{font-size:28px;fill:#fff;font-family:Arial;font-weight:700;}.cls-3,.cls-4{fill-rule:evenodd;}.cls-3{fill:url(#linear-gradient-2);}.cls-4{fill:url(#linear-gradient-3);}.cls-5{stroke-linejoin:bevel;fill:url(#linear-gradient-4);}</style><linearGradient id="linear-gradient" x1="37" y1="1" x2="37" y2="100" gradientUnits="userSpaceOnUse"><stop offset="0" stop-color="#dbcbe2"/><stop offset="0.19" stop-color="#d9c8e0"/><stop offset="0.35" stop-color="#d3bdda"/><stop offset="0.5" stop-color="#c9acd1"/><stop offset="0.64" stop-color="#bb93c3"/><stop offset="0.77" stop-color="#a873b1"/><stop offset="0.91" stop-color="#924d9c"/><stop offset="1" stop-color="#7f2d8a"/></linearGradient><linearGradient id="linear-gradient-2" x1="45" y1="716.38" x2="45" y2="716.38" gradientUnits="userSpaceOnUse"><stop offset="0.01" stop-color="#82368d"/><stop offset="1" stop-color="#601869"/></linearGradient><linearGradient id="linear-gradient-3" x1="38.31" y1="714.72" x2="92.06" y2="714.72" xlink:href="#linear-gradient-2"/><linearGradient id="linear-gradient-4" x1="46" y1="28" x2="59.5" y2="14.5" gradientUnits="userSpaceOnUse"><stop offset="0" stop-color="#f6eef5"/><stop offset="0.39" stop-color="#f5ecf4"/><stop offset="0.54" stop-color="#f1e5f0"/><stop offset="0.64" stop-color="#e9daea"/><stop offset="0.72" stop-color="#dfc9e0"/><stop offset="0.79" stop-color="#d1b3d4"/><stop offset="0.85" stop-color="#c197c5"/><stop offset="0.91" stop-color="#ad77b3"/><stop offset="0.96" stop-color="#96539f"/><stop offset="1" stop-color="#7f2d8a"/></linearGradient></defs><title>mp4</title><polygon class="cls-1" points="46 1 73 28 73 100 1 100 1 1 46 1"/><text class="cls-2" transform="translate(8 92)">MP4</text><path class="cls-3" d="M45,716.38" transform="translate(-26 -663.89)"/><path class="cls-4" d="M91.15,720c-1.67-.16-3.37-0.26-5.11-0.27a50.11,50.11,0,0,0-18.76,3.66c-5.52,2.09-10.78,4.74-17.07,5.17-3.37.23-7.29-.55-8.49-2.42-0.82-1.28-.79-3.52-1-5.76-0.59-5.83-1.58-11.82-2.4-17.47a6.94,6.94,0,0,1,3.42-1.67c0.36,1.12.23,2.73,0.6,3.84,7.14,0.73,13.63-.38,20-1.52A146,146,0,0,1,81.74,701c3.41-.17,6.88-0.17,10.32,0M81,716.28m-0.43,0,1.49,0a4.61,4.61,0,0,1,1.92-.2c0.21-3.65.34-7.38,0.31-11.28a84.42,84.42,0,0,0-17,2.19c0.16,4,.36,7.94.32,12.13,4-1.13,7.71-2.46,12.58-2.65m2-12.32H83.2c0.36-.35.18-1.25,0.23-1.91C81.89,701.69,81.6,703.28,82.14,704.16ZM86,704h1.49c0-.57,0-1.13,0-1.7H86.2C86.24,703,85.81,703.18,86,704Zm4,0a1.39,1.39,0,0,1,1.06.22c0.36-.35.18-1.25,0.23-1.91H90Q90,703.16,90,704Zm-11.5.32h0.85c0.36-.35.18-1.25,0.23-1.91C78.24,702,78,703.57,78.52,704.34Zm-4,.39c0.74,0.18.82-.31,1.49-0.2,0-.57,0-1.14,0-1.71C74.46,702.42,74.33,703.44,74.47,704.73Zm-3.61-1.1a2.93,2.93,0,0,0,.2,1.71c0.51,0.09.46-.39,1.07-0.2-0.19-.59.46-2-0.41-1.92C71.68,703.61,71,703.34,70.86,703.63Zm-31.5.78c0.37-.06,1.06.61,1.28,0-0.46,0-.09-0.76-0.2-1.07C39.85,703.47,39.24,703.57,39.36,704.41ZM67.67,704c-0.32.34,0.17,1.07,0,1.92,0.6,0.18.55-.29,1.07-0.2-0.19-.59.45-2-0.41-1.92C68.27,704.07,68,704,67.67,704Zm-3.43,2.74a4.85,4.85,0,0,0,1.28-.42c0.16-.79-0.36-0.92-0.2-1.7H64.47C64.09,705,64.3,706,64.24,706.77ZM91.07,705c-2.1-.14-3.26-0.2-5.53-0.18-0.5,3.43,0,7.86-.53,11.27a42.17,42.17,0,0,1,5.77.28m-30.58-10.5c0.48,0.16.07,1.2,0.2,1.7a7.94,7.94,0,0,0,1.49-.41C62.45,705.32,61,704.79,60.21,705.88Zm-4.69.6c0,0.64,0,1.28,0,1.91a7.26,7.26,0,0,0,1.92-.2c-0.05-.72.18-1.72-0.2-2.13A12.05,12.05,0,0,0,55.52,706.47Zm-5.33.59c0.32,0.53,0,1.65.41,2.13,0.67,0.11.76-.38,1.49-0.2a7.59,7.59,0,0,1-.19-2.13C51.11,706.71,51,707.22,50.19,707.06Zm-7.47,2.06h1.06c0.16-.93-0.35-1.2-0.19-2.13-0.37.12-1.25-.27-1.28,0.2C42.86,707.45,42.22,708.85,42.72,709.12Zm3.4,1.09c0.08,4.15.87,9.4,1.37,13.85,8,0.09,13.05-2.74,19.19-4.51-0.49-3.88.05-8.77-.74-12.35C59.83,708.72,53.93,710.44,46.12,710.22Zm0.43-.85h1.06c0.42-.48-0.21-1.19,0-2.13H46.15A11.51,11.51,0,0,0,46.55,709.37Zm-5.39,7.83a0.63,0.63,0,0,1,.42.43c-0.41-.69-0.69.55-0.22,0.64,0.05-.17,0-0.42.21-0.42,0.28,0.54-.85.66-0.22,0.85a5.88,5.88,0,0,1,2.36-1.47c-0.05,1.46.4,2.42,0.39,3.83-0.72.48-1.72,0.68-1.93,1.69a10.26,10.26,0,0,0,4.25,1.31c-0.65-5-1.09-8.89-1.58-13.85-2.2.33-4-.84-5.1-0.9,0.88,0.85.62,2.48,0.82,3.62,0-.17,0-0.42.22-0.42-0.07.72,0.15,1.73-.23,2.13,0.69,0.3.54-.24,0.42,0.86m44.66,3.17h1.06a2.91,2.91,0,0,0,.23-1.7H85.64C85.64,717.53,85.63,718.09,85.63,718.66Zm-4-1.31q0,0.64,0,1.28c0.35,0.38.71-.18,1.49,0,0-.5,0-1,0-1.49A2.32,2.32,0,0,0,81.59,717.35Zm7.65,1.34h1.28c0-.49,0-1,0-1.49H89.26C89.25,717.7,89.25,718.2,89.24,718.69Zm-11.06-.95c0,0.42,0,.85,0,1.28h1.06c0.29-.31.45-1.68-0.2-1.71C79,717.72,78.32,717.45,78.19,717.74Zm-3.62.39c0.06,0.64-.25,1.65.41,1.7,0-.31.52-0.19,0.85-0.2-0.17-.54.43-1.83-0.41-1.71C75.38,718.24,74.9,718.12,74.57,718.14Zm-3.42,1q0,0.75,0,1.49c0.65,0.16.63-.36,1.28-0.2-0.17-.54.43-1.83-0.41-1.71C72,719.15,71.29,718.87,71.15,719.17Zm-29.39,2.29c0.66-.46,1.27-1.73.24-2.34A1.66,1.66,0,0,0,41.76,721.46Zm26.19-1.25c-0.11.67,0.38,0.75,0.2,1.49,0.91,0,1.23-.61,1.08-1.69C68.8,719.54,68.39,720.05,67.95,720.21Zm-3,2.74c1,0,1.2-.78,1.08-1.9H65.18C64.82,721.38,65,722.28,64.95,722.94Zm-3.62-.46c0,0.57,0,1.13,0,1.7a1.72,1.72,0,0,0,1.5-.84c-0.64,0,.31-1.57-0.63-1.28C62.15,722.46,61.46,722.19,61.33,722.49ZM42.79,725.3c-0.37-.7-0.16-2-1.26-1.93C41.72,724.11,41.73,726.12,42.79,725.3Zm13.84-.94c0.47,0,.08.9,0.2,1.28a3.33,3.33,0,0,0,1.71-.41q0-.85,0-1.7A1.87,1.87,0,0,0,56.63,724.36Zm-4.69.6c0,0.77-.13,1.68.41,1.92,0-.46.76-0.09,1.07-0.2,0.32-.34-0.18-1.07,0-1.91A3.41,3.41,0,0,0,51.95,725Zm-6.19,1.86q0-.85,0-1.7c-0.5,0-.62-0.37-1.28-0.22C44.45,726,44.48,727,45.76,726.81ZM48.31,727h1.28c0.17-.87-0.32-1.09-0.2-1.92H48.12A7.1,7.1,0,0,0,48.31,727Z" transform="translate(-26 -663.89)"/><polygon class="cls-5" points="46 1 73 28 46 28 46 1"/></svg>