<svg id="Layer_1" data-name="Layer 1" xmlns="http://www.w3.org/2000/svg" xmlns:xlink="http://www.w3.org/1999/xlink" viewBox="0 0 74 102.54"><defs><style>.cls-1,.cls-3{stroke:#638133;stroke-width:2px;}.cls-1{fill:url(#linear-gradient);}.cls-2{font-size:28px;fill:#fff;font-family:Arial;font-weight:700;}.cls-3{stroke-linejoin:bevel;fill:url(#linear-gradient-2);}.cls-4{fill-rule:evenodd;}</style><linearGradient id="linear-gradient" x1="37" y1="100" x2="37" y2="1" gradientUnits="userSpaceOnUse"><stop offset="0" stop-color="#638335"/><stop offset="0.11" stop-color="#73963c"/><stop offset="0.26" stop-color="#84aa44"/><stop offset="0.43" stop-color="#90b849"/><stop offset="0.64" stop-color="#97c04c"/><stop offset="1" stop-color="#99c34d"/></linearGradient><linearGradient id="linear-gradient-2" x1="46" y1="28" x2="59.5" y2="14.5" gradientUnits="userSpaceOnUse"><stop offset="0" stop-color="#f3f5d5"/><stop offset="0.34" stop-color="#f1f4d3"/><stop offset="0.49" stop-color="#ebefcb"/><stop offset="0.61" stop-color="#e0e7bf"/><stop offset="0.71" stop-color="#d1dcac"/><stop offset="0.8" stop-color="#bdce94"/><stop offset="0.88" stop-color="#a5bc77"/><stop offset="0.96" stop-color="#88a755"/><stop offset="1" stop-color="#74983d"/></linearGradient></defs><title>ods</title><polygon class="cls-1" points="46 1 73 28 73 100 1 100 1 1 46 1"/><text class="cls-2" transform="translate(7 92)">ODS</text><polygon class="cls-3" points="46 1 73 28 46 28 46 1"/><path class="cls-4" d="M698.92,448.89h1.95a26.2,26.2,0,0,1,7.27,1.75c4.25-1.86,10.3-.39,14,1-4.83-.47-10.46,0-13.77,1.88-3.32-2.7-9.58-3.41-15.52-2.66A13,13,0,0,1,698.92,448.89Zm-1.43,7.27a13.5,13.5,0,0,0-8.05,2.92c-5.68-2.62-15.55-1.5-19.22,2a1.11,1.11,0,0,0-.58.78,30.77,30.77,0,0,1,11.17-1.49,16.4,16.4,0,0,1,9.29,3.51c4.12-3.72,10.18-5.84,17.92-5.71A22.2,22.2,0,0,0,697.49,456.16Zm17.08,11-48.57,1" transform="translate(-656 -411.89)"/></svg>