<svg id="Layer_1" data-name="Layer 1" xmlns="http://www.w3.org/2000/svg" xmlns:xlink="http://www.w3.org/1999/xlink" viewBox="0 0 74 102.54"><defs><style>.cls-1,.cls-3{stroke:#25425d;stroke-width:2px;}.cls-1{fill:url(#linear-gradient);}.cls-2{font-size:28px;fill:#fff;font-family:Arial;font-weight:700;}.cls-3{stroke-linejoin:bevel;fill:url(#linear-gradient-2);}.cls-4{fill-rule:evenodd;}</style><linearGradient id="linear-gradient" x1="37" y1="100" x2="37" y2="1" gradientUnits="userSpaceOnUse"><stop offset="0.01" stop-color="#193045"/><stop offset="0.01" stop-color="#1a3247"/><stop offset="0.12" stop-color="#294a67"/><stop offset="0.24" stop-color="#345e81"/><stop offset="0.37" stop-color="#3e6d95"/><stop offset="0.52" stop-color="#4478a3"/><stop offset="0.7" stop-color="#487eab"/><stop offset="1" stop-color="#4980ae"/></linearGradient><linearGradient id="linear-gradient-2" x1="46" y1="28" x2="59.5" y2="14.5" gradientUnits="userSpaceOnUse"><stop offset="0.01" stop-color="#e3f1fa"/><stop offset="0.32" stop-color="#e1eff8"/><stop offset="0.47" stop-color="#d9e9f3"/><stop offset="0.58" stop-color="#ccdde9"/><stop offset="0.68" stop-color="#bacddc"/><stop offset="0.77" stop-color="#a2b8ca"/><stop offset="0.85" stop-color="#849fb4"/><stop offset="0.92" stop-color="#61809b"/><stop offset="0.99" stop-color="#395e7d"/><stop offset="1" stop-color="#305677"/></linearGradient></defs><title>odt</title><polygon class="cls-1" points="46 1 73 28 73 100 1 100 1 1 46 1"/><text class="cls-2" transform="translate(7 92)">ODT</text><polygon class="cls-3" points="46 1 73 28 46 28 46 1"/><path class="cls-4" d="M522.12,446.39h1.95a26.2,26.2,0,0,1,7.27,1.75c4.25-1.86,10.3-.39,14,1-4.83-.47-10.46,0-13.77,1.88-3.32-2.7-9.58-3.41-15.52-2.66A13,13,0,0,1,522.12,446.39Zm-1.43,7.27a13.5,13.5,0,0,0-8.05,2.92c-5.68-2.62-15.55-1.5-19.22,2a1.11,1.11,0,0,0-.58.78A30.77,30.77,0,0,1,504,457.89a16.4,16.4,0,0,1,9.29,3.51c4.12-3.72,10.18-5.84,17.92-5.71A22.2,22.2,0,0,0,520.69,453.67Zm17.08,11-48.57,1" transform="translate(-476 -411.89)"/></svg>