<svg id="Layer_1" data-name="Layer 1" xmlns="http://www.w3.org/2000/svg" xmlns:xlink="http://www.w3.org/1999/xlink" viewBox="0 0 74 101.54"><defs><style>.cls-1,.cls-4{stroke:#7b909f;stroke-width:2px;}.cls-1{fill:url(#linear-gradient);}.cls-2{font-size:28px;fill:#576b79;font-family:Arial;font-weight:700;}.cls-3{fill:url(#linear-gradient-2);}.cls-4{stroke-linejoin:bevel;fill:url(#linear-gradient-3);}</style><linearGradient id="linear-gradient" x1="37" y1="100" x2="37" y2="1" gradientUnits="userSpaceOnUse"><stop offset="0" stop-color="#cad3da"/><stop offset="0.03" stop-color="#cfd7dd"/><stop offset="0.22" stop-color="#e4e9ec"/><stop offset="0.42" stop-color="#f3f5f7"/><stop offset="0.65" stop-color="#fcfdfd"/><stop offset="1" stop-color="#fff"/></linearGradient><linearGradient id="linear-gradient-2" x1="692.18" y1="83.15" x2="692.18" y2="39.56" gradientUnits="userSpaceOnUse"><stop offset="0" stop-color="#b5cbda"/><stop offset="1" stop-color="#576b79"/></linearGradient><linearGradient id="linear-gradient-3" x1="46" y1="28" x2="59.5" y2="14.5" gradientUnits="userSpaceOnUse"><stop offset="0" stop-color="#fff"/><stop offset="0.34" stop-color="#fdfdfd"/><stop offset="0.52" stop-color="#f5f6f7"/><stop offset="0.66" stop-color="#e7ebed"/><stop offset="0.77" stop-color="#d4dade"/><stop offset="0.88" stop-color="#bcc5cb"/><stop offset="0.98" stop-color="#9eabb4"/><stop offset="1" stop-color="#96a4ae"/></linearGradient></defs><title>py</title><polygon class="cls-1" points="46 1 73 28 73 100 1 100 1 1 46 1"/><text class="cls-2" transform="translate(18 91)">P<tspan x="18.68" y="0">Y</tspan></text><path class="cls-3" d="M695.4,39.56h-7.58c-7.58,0-7.58,5.34-7.58,5.34v3.27H695.4v2.07H680.24c-7.58,0-7.58,5.34-7.58,5.34v5.34c0,5.34,7.58,5.34,7.58,5.34,0-5.34,7.58-5.34,7.58-5.34h7.58c7.58,0,7.58-5.34,7.58-5.34V44.9C703,39.56,695.4,39.56,695.4,39.56Zm-12.16,6.91a1.42,1.42,0,1,1,1.42-1.42A1.42,1.42,0,0,1,683.23,46.48Zm20.89,10c0,5.34-7.58,5.34-7.58,5.34H689c-7.58,0-7.58,5.34-7.58,5.34V77.81c0,5.34,7.58,5.34,7.58,5.34h7.58c7.58,0,7.58-5.34,7.58-5.34V74.54H689V72.47h15.15c7.58,0,7.58-5.34,7.58-5.34V61.79C711.7,56.45,704.12,56.45,704.12,56.45Zm-3,19.66a1.42,1.42,0,1,1-1.42,1.42A1.42,1.42,0,0,1,701.09,76.11Z" transform="translate(-656 -21.89)"/><polygon class="cls-4" points="46 1 73 28 46 28 46 1"/></svg>