<svg id="Layer_1" data-name="Layer 1" xmlns="http://www.w3.org/2000/svg" xmlns:xlink="http://www.w3.org/1999/xlink" viewBox="0 0 74 101"><defs><style>.cls-1,.cls-5{stroke:#7b909f;stroke-width:2px;}.cls-1{fill:url(#linear-gradient);}.cls-2{font-size:22px;fill:#576b79;font-family:Arial;font-weight:700;}.cls-3{fill:url(#linear-gradient-2);}.cls-4{fill:url(#linear-gradient-3);}.cls-5{stroke-linejoin:bevel;fill:url(#linear-gradient-4);}</style><linearGradient id="linear-gradient" x1="37" y1="100" x2="37" y2="1" gradientUnits="userSpaceOnUse"><stop offset="0" stop-color="#cad3da"/><stop offset="0.03" stop-color="#cfd7dd"/><stop offset="0.22" stop-color="#e4e9ec"/><stop offset="0.42" stop-color="#f3f5f7"/><stop offset="0.65" stop-color="#fcfdfd"/><stop offset="1" stop-color="#fff"/></linearGradient><linearGradient id="linear-gradient-2" x1="1037.53" y1="218.11" x2="1037.53" y2="178.66" gradientUnits="userSpaceOnUse"><stop offset="0" stop-color="#8b99a4"/><stop offset="0.39" stop-color="#8997a2"/><stop offset="0.59" stop-color="#81909c"/><stop offset="0.75" stop-color="#748490"/><stop offset="0.89" stop-color="#617380"/><stop offset="0.99" stop-color="#4d6170"/></linearGradient><linearGradient id="linear-gradient-3" x1="1067.78" y1="218.11" x2="1067.78" y2="178.66" xlink:href="#linear-gradient-2"/><linearGradient id="linear-gradient-4" x1="46" y1="28" x2="59.5" y2="14.5" gradientUnits="userSpaceOnUse"><stop offset="0" stop-color="#fff"/><stop offset="0.34" stop-color="#fdfdfd"/><stop offset="0.52" stop-color="#f5f6f7"/><stop offset="0.66" stop-color="#e7ebed"/><stop offset="0.77" stop-color="#d4dade"/><stop offset="0.88" stop-color="#bcc5cb"/><stop offset="0.98" stop-color="#9eabb4"/><stop offset="1" stop-color="#96a4ae"/></linearGradient></defs><title>sass</title><polygon class="cls-1" points="46 1 73 28 73 100 1 100 1 1 46 1"/><text class="cls-2" transform="translate(7 92)">SASS</text><path class="cls-3" d="M1030.51,200.85v-4.93a6.14,6.14,0,0,0,2.26-.45,3.27,3.27,0,0,0,1.31-1.24,5.67,5.67,0,0,0,.76-2.19,24.1,24.1,0,0,0,.16-3.43,28,28,0,0,1,.37-5.55,5.1,5.1,0,0,1,1.33-2.52,6.65,6.65,0,0,1,2.81-1.51,15.14,15.14,0,0,1,3.94-.37h1.09v4.91a10.08,10.08,0,0,0-2.92.26,1.85,1.85,0,0,0-1,.78,3.78,3.78,0,0,0-.31,1.79q0,1.29-.18,4.91a12.37,12.37,0,0,1-.53,3.29,6.71,6.71,0,0,1-1.1,2.08,8.62,8.62,0,0,1-2,1.7,7.16,7.16,0,0,1,2,1.63,6.56,6.56,0,0,1,1.18,2.27,15.42,15.42,0,0,1,.53,3.57q0.14,3.41.14,4.35a3.86,3.86,0,0,0,.33,1.89,2,2,0,0,0,1,.81,9.29,9.29,0,0,0,2.88.28v4.93h-1.09a15.69,15.69,0,0,1-4.25-.44,5.77,5.77,0,0,1-2.49-1.47,5.18,5.18,0,0,1-1.37-2.54,23.14,23.14,0,0,1-.35-4.75,22.4,22.4,0,0,0-.33-4.91,4.32,4.32,0,0,0-1.37-2.35A5,5,0,0,0,1030.51,200.85Z" transform="translate(-1016 -156.89)"/><path class="cls-4" d="M1074.8,200.85a6.12,6.12,0,0,0-2.26.45,3.22,3.22,0,0,0-1.3,1.24,6.09,6.09,0,0,0-.77,2.19,23.92,23.92,0,0,0-.16,3.41,29,29,0,0,1-.36,5.56,5,5,0,0,1-1.32,2.54,6.67,6.67,0,0,1-2.83,1.51,15.19,15.19,0,0,1-3.94.37h-1.09v-4.93a9.29,9.29,0,0,0,2.87-.28,2,2,0,0,0,1-.8,3.67,3.67,0,0,0,.33-1.78q0-1.25.17-4.78a12.38,12.38,0,0,1,.55-3.42,6.93,6.93,0,0,1,1.2-2.18,7.14,7.14,0,0,1,1.92-1.57,8.45,8.45,0,0,1-2.22-1.93,8.19,8.19,0,0,1-1.31-3.45,61.29,61.29,0,0,1-.33-6.32,5.49,5.49,0,0,0-.28-2.05,1.71,1.71,0,0,0-.92-0.79,9.79,9.79,0,0,0-3-.28v-4.91h1.09a16,16,0,0,1,4.25.43,5.56,5.56,0,0,1,2.48,1.47,5.36,5.36,0,0,1,1.36,2.54,22.57,22.57,0,0,1,.36,4.75,24,24,0,0,0,.31,4.91,4.27,4.27,0,0,0,1.38,2.35,5.06,5.06,0,0,0,2.81.81v4.93Z" transform="translate(-1016 -156.89)"/><polygon class="cls-5" points="46 1 73 28 46 28 46 1"/></svg>