<svg id="Layer_1" data-name="Layer 1" xmlns="http://www.w3.org/2000/svg" xmlns:xlink="http://www.w3.org/1999/xlink" viewBox="0 0 74 102.54"><defs><style>.cls-1,.cls-5{stroke:#b6215a;stroke-width:2px;}.cls-1{fill:url(#linear-gradient);}.cls-2{font-size:28px;fill:#fff;font-family:Arial;font-weight:700;}.cls-3{opacity:0.73;fill:url(#linear-gradient-2);}.cls-4{fill:none;stroke:#e7b4b9;}.cls-5{stroke-linejoin:bevel;fill:url(#linear-gradient-3);}</style><linearGradient id="linear-gradient" x1="37" y1="1" x2="37" y2="100" gradientUnits="userSpaceOnUse"><stop offset="0" stop-color="#e5aeb6"/><stop offset="0.21" stop-color="#e4abb4"/><stop offset="0.37" stop-color="#e1a1ae"/><stop offset="0.51" stop-color="#db91a5"/><stop offset="0.64" stop-color="#d47a97"/><stop offset="0.76" stop-color="#ca5d85"/><stop offset="0.88" stop-color="#be3970"/><stop offset="0.99" stop-color="#b00e56"/><stop offset="1" stop-color="#af0c55"/></linearGradient><linearGradient id="linear-gradient-2" x1="1049.34" y1="440.9" x2="1073.42" y2="440.9" gradientTransform="matrix(-0.81, -0.59, 0.59, -0.81, 1293.77, 1556.12)" gradientUnits="userSpaceOnUse"><stop offset="0" stop-color="#cd2c66"/><stop offset="1" stop-color="#a0004e"/></linearGradient><linearGradient id="linear-gradient-3" x1="46" y1="28" x2="59.5" y2="14.5" gradientUnits="userSpaceOnUse"><stop offset="0" stop-color="#fffeef"/><stop offset="0.27" stop-color="#fefcee"/><stop offset="0.41" stop-color="#fcf4e9"/><stop offset="0.52" stop-color="#f9e6e0"/><stop offset="0.62" stop-color="#f4d3d5"/><stop offset="0.7" stop-color="#edbbc5"/><stop offset="0.78" stop-color="#e59cb2"/><stop offset="0.85" stop-color="#dc789c"/><stop offset="0.92" stop-color="#d14e82"/><stop offset="0.99" stop-color="#c52065"/><stop offset="1" stop-color="#c2145e"/></linearGradient></defs><title>ai</title><polygon class="cls-1" points="46 1 73 28 73 100 1 100 1 1 46 1"/><text class="cls-2" transform="translate(22 92)">AI</text><path class="cls-3" d="M679.11,600.79l-4.58-3.31s7.64-15.39,4.72-21l16.16-12.71s6.23,1,9.16,6.62l-7,19.34C691.33,588.71,679.11,600.79,679.11,600.79Zm11-20a2.83,2.83,0,1,0-.63-3.94A2.83,2.83,0,0,0,690.06,580.82Zm0,0-13.24,18.31m39-34.71c-6.23-11.93-19.52-14.11-19.52-14.11l-6,8.26c13.29,2.17,19.52,14.11,19.52,14.11Z" transform="translate(-656 -537.89)"/><line class="cls-4" x1="21" y1="61.38" x2="34.28" y2="43"/><polygon class="cls-5" points="46 1 73 28 46 28 46 1"/></svg>