<svg id="Layer_1" data-name="Layer 1" xmlns="http://www.w3.org/2000/svg" xmlns:xlink="http://www.w3.org/1999/xlink" viewBox="0 0 74 102.54"><defs><style>.cls-1,.cls-4{stroke:#75277f;stroke-width:2px;}.cls-1{fill:url(#linear-gradient);}.cls-2{font-size:28px;fill:#fff;font-family:Arial;font-weight:700;}.cls-3{letter-spacing:-2px;}.cls-4{stroke-linejoin:bevel;fill:url(#linear-gradient-2);}.cls-5{fill-rule:evenodd;fill:url(#linear-gradient-3);}</style><linearGradient id="linear-gradient" x1="37" y1="1" x2="37" y2="100" gradientUnits="userSpaceOnUse"><stop offset="0" stop-color="#dbcbe2"/><stop offset="0.19" stop-color="#d9c8e0"/><stop offset="0.35" stop-color="#d3bdda"/><stop offset="0.5" stop-color="#c9acd1"/><stop offset="0.64" stop-color="#bb93c3"/><stop offset="0.77" stop-color="#a873b1"/><stop offset="0.91" stop-color="#924d9c"/><stop offset="1" stop-color="#7f2d8a"/></linearGradient><linearGradient id="linear-gradient-2" x1="46" y1="28" x2="59.5" y2="14.5" gradientUnits="userSpaceOnUse"><stop offset="0" stop-color="#f6eef5"/><stop offset="0.39" stop-color="#f5ecf4"/><stop offset="0.54" stop-color="#f1e5f0"/><stop offset="0.64" stop-color="#e9daea"/><stop offset="0.72" stop-color="#dfc9e0"/><stop offset="0.79" stop-color="#d1b3d4"/><stop offset="0.85" stop-color="#c197c5"/><stop offset="0.91" stop-color="#ad77b3"/><stop offset="0.96" stop-color="#96539f"/><stop offset="1" stop-color="#7f2d8a"/></linearGradient><linearGradient id="linear-gradient-3" x1="130.31" y1="714.73" x2="177.24" y2="714.73" gradientUnits="userSpaceOnUse"><stop offset="0.01" stop-color="#82368d"/><stop offset="1" stop-color="#601869"/></linearGradient></defs><title>avi</title><polygon class="cls-1" points="46 1 73 28 73 100 1 100 1 1 46 1"/><text class="cls-2" transform="translate(14 92)"><tspan class="cls-3">A</tspan><tspan x="18.14" y="0">VI</tspan></text><polygon class="cls-4" points="46 1 73 28 46 28 46 1"/><path class="cls-5" d="M177.24,716.1H177a25,25,0,0,0,.23-2.8V700.85c-1.17,0-2.34.05-3.5,0.11a146,146,0,0,0-19.39,2.59c-6.39,1.15-12.88,2.25-20,1.52-0.38-1.11-.24-2.71-0.6-3.84a6.94,6.94,0,0,0-3.42,1.67c0.82,5.65,1.81,11.64,2.4,17.47,0.22,2.24.19,4.48,1,5.76,1.2,1.87,5.12,2.65,8.49,2.42,6.29-.43,11.55-3.08,17.07-5.17a50.53,50.53,0,0,1,18-3.65V716.1Zm-1.81-13.84c0,0.67.13,1.56-.23,1.91h-1.06C173.6,703.28,173.89,701.69,175.43,702.25Zm-3.83.18c0,0.66.13,1.56-.23,1.91h-0.85C170,703.57,170.24,702,171.6,702.43Zm-3.62.39c0,0.57,0,1.14,0,1.71-0.67-.11-0.76.38-1.49,0.2C166.33,703.44,166.46,702.42,168,702.82Zm-5.11.81c0.13-.29.82,0,0.86-0.42,0.86-.08.22,1.33,0.41,1.92-0.6-.18-0.55.29-1.07,0.2A2.93,2.93,0,0,1,162.86,703.63Zm-3.19.4c0.3,0,.6,0,0.64-0.21,0.86-.07.22,1.33,0.41,1.92-0.51-.09-0.47.38-1.07,0.2C159.84,705.1,159.35,704.37,159.67,704Zm-3.2.61h0.85c-0.16.79,0.36,0.92,0.2,1.7a4.85,4.85,0,0,1-1.28.42C156.3,706,156.09,705,156.47,704.64Zm-2.57,2.53a7.94,7.94,0,0,1-1.49.41c-0.12-.51.28-1.54-0.2-1.7C153,704.79,154.45,705.32,153.9,707.17Zm-6.38-.7a12.05,12.05,0,0,1,1.71-.41c0.37,0.4.14,1.41,0.2,2.13a7.26,7.26,0,0,1-1.92.2C147.51,707.75,147.51,707.11,147.52,706.47Zm-3.62.39a7.59,7.59,0,0,0,.19,2.13c-0.73-.18-0.82.31-1.49,0.2-0.37-.48-0.09-1.6-0.41-2.13C143,707.22,143.11,706.71,143.9,706.87Zm-4.26.39c-0.23.94,0.41,1.65,0,2.13h-1.06a11.51,11.51,0,0,1-.41-2.13h1.49Zm-4-.25c-0.16.93,0.35,1.2,0.19,2.13h-1.06c-0.51-.27.13-1.68-0.41-1.92C134.35,706.74,135.22,707.12,135.6,707Zm-3.16-3.64c0.11,0.31-.26,1.1.2,1.07-0.22.6-.9-0.07-1.28,0C131.24,703.57,131.85,703.47,132.44,703.36Zm1.1,20c1.1,0,.89,1.23,1.26,1.93C133.73,726.12,133.72,724.11,133.54,723.37Zm0.46-4.25c1,0.61.42,1.88-.24,2.34A1.66,1.66,0,0,1,134,719.12Zm3.76,7.7c-1.28.2-1.31-.82-1.26-1.93,0.65-.15.77,0.22,1.28,0.22Q137.77,726,137.76,726.81Zm-3.58-4.07c0.21-1,1.21-1.21,1.93-1.69,0-1.41-.44-2.38-0.39-3.83a5.88,5.88,0,0,0-2.36,1.47c-0.63-.19.5-0.31,0.22-0.85-0.21,0-.16.26-0.21,0.42-0.47-.09-0.19-1.33.22-0.64a0.63,0.63,0,0,0-.42-0.43l-0.2-1.71c0.12-1.1.27-.56-0.42-0.86,0.38-.4.17-1.4,0.23-2.12-0.21,0-.17.26-0.22,0.42-0.2-1.14.06-2.78-.82-3.62,1.09,0.05,2.9,1.23,5.1.9,0.49,5,.93,8.89,1.58,13.85A10.26,10.26,0,0,1,134.18,722.74Zm7.41,4.32h-1.28a7.1,7.1,0,0,1-.2-1.92h1.28C141.27,726,141.76,726.19,141.59,727.06Zm3.83-.39c-0.31.11-1.1-.26-1.07,0.2-0.54-.24-0.41-1.14-0.41-1.92a3.41,3.41,0,0,1,1.49-.2C145.25,725.6,145.74,726.33,145.42,726.67Zm5.12-1.44a3.33,3.33,0,0,1-1.71.41c-0.12-.37.27-1.25-0.2-1.28a1.87,1.87,0,0,1,1.92-.83Q150.55,724.37,150.54,725.23Zm2.77-1c0-.57,0-1.14,0-1.7,0.13-.29.82,0,0.85-0.42,0.94-.29,0,1.27.63,1.28A1.72,1.72,0,0,1,153.32,724.19Zm3.63-1.25c0-.66-0.13-1.56.23-1.91H158C158.15,722.16,158,723,156.95,722.94Zm-17.46,1.12c-0.49-4.44-1.29-9.7-1.37-13.85,7.81,0.22,13.71-1.5,19.82-3,0.79,3.58.25,8.47,0.74,12.35C152.54,721.32,147.45,724.16,139.49,724.06Zm20.66-2.37c0.18-.74-0.31-0.82-0.2-1.49,0.44-.15.85-0.66,1.28-0.2C161.38,721.09,161.06,721.69,160.15,721.7Zm4.27-1.24c-0.65-.16-0.63.36-1.28,0.2q0-.74,0-1.49c0.13-.29.82,0,0.86-0.42C164.85,718.63,164.25,719.92,164.42,720.46Zm3.41-.82c-0.33,0-.81-0.11-0.85.2-0.66-.05-0.35-1.06-0.41-1.7,0.34,0,.81.11,0.85-0.21C168.26,717.81,167.66,719.1,167.83,719.64Zm3.41-.61h-1.06c0-.43,0-0.85,0-1.28s0.82,0,.85-0.42C171.69,717.35,171.53,718.72,171.24,719Zm3.83-.39c-0.77-.2-1.14.37-1.49,0q0-.64,0-1.28a2.32,2.32,0,0,1,1.49-.2C175.08,717.64,175.08,718.14,175.07,718.64Zm0.88-2.55a4.61,4.61,0,0,0-1.92.2l-1.92.2c-4.87.19-8.62,1.53-12.58,2.65,0-4.19-.15-8.15-0.32-12.13a84.42,84.42,0,0,1,17-2.19C176.29,708.71,176.16,712.44,175.95,716.09Z" transform="translate(-116 -663.89)"/></svg>