<svg id="Layer_1" data-name="Layer 1" xmlns="http://www.w3.org/2000/svg" xmlns:xlink="http://www.w3.org/1999/xlink" viewBox="0 0 74 101"><defs><style>.cls-1,.cls-4{stroke:#25425d;stroke-width:2px;}.cls-1{fill:url(#linear-gradient);}.cls-2{font-size:22px;fill:#fff;font-family:Arial;font-weight:700;}.cls-3{fill:url(#linear-gradient-2);}.cls-4{stroke-linejoin:bevel;fill:url(#linear-gradient-3);}</style><linearGradient id="linear-gradient" x1="37" y1="100" x2="37" y2="1" gradientUnits="userSpaceOnUse"><stop offset="0.01" stop-color="#193045"/><stop offset="0.01" stop-color="#1a3247"/><stop offset="0.12" stop-color="#294a67"/><stop offset="0.24" stop-color="#345e81"/><stop offset="0.37" stop-color="#3e6d95"/><stop offset="0.52" stop-color="#4478a3"/><stop offset="0.7" stop-color="#487eab"/><stop offset="1" stop-color="#4980ae"/></linearGradient><linearGradient id="linear-gradient-2" x1="404.25" y1="463.89" x2="441.34" y2="426.8" gradientUnits="userSpaceOnUse"><stop offset="0.01" stop-color="#306184"/><stop offset="0.16" stop-color="#2e5e7f"/><stop offset="0.34" stop-color="#295472"/><stop offset="0.53" stop-color="#21435c"/><stop offset="0.72" stop-color="#162d3d"/><stop offset="0.91" stop-color="#080f15"/><stop offset="1"/></linearGradient><linearGradient id="linear-gradient-3" x1="46" y1="28" x2="59.5" y2="14.5" gradientUnits="userSpaceOnUse"><stop offset="0.01" stop-color="#e3f1fa"/><stop offset="0.32" stop-color="#e1eff8"/><stop offset="0.47" stop-color="#d9e9f3"/><stop offset="0.58" stop-color="#ccdde9"/><stop offset="0.68" stop-color="#bacddc"/><stop offset="0.77" stop-color="#a2b8ca"/><stop offset="0.85" stop-color="#849fb4"/><stop offset="0.92" stop-color="#61809b"/><stop offset="0.99" stop-color="#395e7d"/><stop offset="1" stop-color="#305677"/></linearGradient></defs><title>docx</title><polygon class="cls-1" points="46 1 73 28 73 100 1 100 1 1 46 1"/><text class="cls-2" transform="translate(6 92)">DOCX</text><path class="cls-3" d="M450.56,437.89a6.39,6.39,0,0,0-1.45.32,9.44,9.44,0,0,0-1.42.62,4.19,4.19,0,0,0-1.53,1.33,9.2,9.2,0,0,0-.83,1.75q-1.28,3.54-4,11.35t-5.56,16.23h-4.71l-8.71-24.57-7.87,24.57h-4.7q-3.89-11.33-6-17.45t-3.5-10.27a5,5,0,0,0-1-1.83,8.81,8.81,0,0,0-1.45-1.15,4.67,4.67,0,0,0-1.34-.62,11.26,11.26,0,0,0-1.64-.31V436h17.65v1.77q-1.56.19-2.33,0.36a7.44,7.44,0,0,0-1.21.36,1,1,0,0,0-.51.4,0.92,0.92,0,0,0-.09.37,2.39,2.39,0,0,0,.08.63q0.08,0.3.17,0.7,0.56,1.82,2.26,6.89t4.2,12.6L422.7,436h4.95l8.71,24.85q1.93-6,3.09-9.79t1.95-6.5q0.47-1.66.75-2.77a8.14,8.14,0,0,0,.28-1.94A1,1,0,0,0,442,439a4.18,4.18,0,0,0-1.22-.61,9.48,9.48,0,0,0-1.69-.34l-1.8-.2V436h13.31v1.86Z" transform="translate(-386 -411.89)"/><polygon class="cls-4" points="46 1 73 28 46 28 46 1"/></svg>