<svg id="Layer_1" data-name="Layer 1" xmlns="http://www.w3.org/2000/svg" xmlns:xlink="http://www.w3.org/1999/xlink" viewBox="0 0 74 101"><defs><style>.cls-1,.cls-4{stroke:#638133;stroke-width:2px;}.cls-1{fill:url(#linear-gradient);}.cls-2{font-size:22px;fill:#fff;font-family:Arial;font-weight:700;}.cls-3{fill:url(#linear-gradient-2);}.cls-4{stroke-linejoin:bevel;fill:url(#linear-gradient-3);}</style><linearGradient id="linear-gradient" x1="37" y1="100" x2="37" y2="1" gradientUnits="userSpaceOnUse"><stop offset="0" stop-color="#638335"/><stop offset="0.11" stop-color="#73963c"/><stop offset="0.26" stop-color="#84aa44"/><stop offset="0.43" stop-color="#90b849"/><stop offset="0.64" stop-color="#97c04c"/><stop offset="1" stop-color="#99c34d"/></linearGradient><linearGradient id="linear-gradient-2" x1="943.27" y1="475.41" x2="982.48" y2="436.2" gradientUnits="userSpaceOnUse"><stop offset="0.01" stop-color="#72943b"/><stop offset="0.32" stop-color="#70913a"/><stop offset="0.53" stop-color="#688835"/><stop offset="0.71" stop-color="#5b792d"/><stop offset="0.88" stop-color="#496422"/><stop offset="1" stop-color="#364e17"/></linearGradient><linearGradient id="linear-gradient-3" x1="46" y1="28" x2="59.5" y2="14.5" gradientUnits="userSpaceOnUse"><stop offset="0" stop-color="#f3f5d5"/><stop offset="0.34" stop-color="#f1f4d3"/><stop offset="0.49" stop-color="#ebefcb"/><stop offset="0.61" stop-color="#e0e7bf"/><stop offset="0.71" stop-color="#d1dcac"/><stop offset="0.8" stop-color="#bdce94"/><stop offset="0.88" stop-color="#a5bc77"/><stop offset="0.96" stop-color="#88a755"/><stop offset="1" stop-color="#74983d"/></linearGradient></defs><title>dotx</title><polygon class="cls-1" points="46 1 73 28 73 100 1 100 1 1 46 1"/><text class="cls-2" transform="translate(6 92)">DOTX</text><path class="cls-3" d="M984.75,473.88H962.2v-2a16.64,16.64,0,0,0,4.17-.56,1.19,1.19,0,0,0,.94-1,3.05,3.05,0,0,0-.34-1.08,15.39,15.39,0,0,0-.94-1.71q-0.91-1.54-2.44-3.85t-3.17-4.76q-5.47,6.33-6.94,8.42a7.06,7.06,0,0,0-1.47,2.76,1.42,1.42,0,0,0,.12.61,1.25,1.25,0,0,0,.61.48,4.61,4.61,0,0,0,1.25.39,18.65,18.65,0,0,0,2.1.29v2H941.74v-2a11.59,11.59,0,0,0,1.79-.24,7.49,7.49,0,0,0,1.32-.44,10.44,10.44,0,0,0,2.69-1.79,32.06,32.06,0,0,0,2.43-2.52l4.12-4.67q2.29-2.61,4.82-5.55-2.4-3.62-4.79-7L950,443.8a16.4,16.4,0,0,0-2.07-2.4,7.79,7.79,0,0,0-2.6-1.72,9.46,9.46,0,0,0-1.51-.48,12.58,12.58,0,0,0-2-.27v-2h22.6v2a17.84,17.84,0,0,0-3.9.47q-1.27.37-1.26,1.1a2.4,2.4,0,0,0,.25.93,17.37,17.37,0,0,0,1,1.76q0.63,1,1.94,3l3,4.56q4.92-5.86,6.18-7.64a5.84,5.84,0,0,0,1.26-2.44,1.21,1.21,0,0,0-.73-1.13,11.77,11.77,0,0,0-3.41-.64v-2h14.42v2a8,8,0,0,0-1.63.18,11.07,11.07,0,0,0-1.47.5,9.32,9.32,0,0,0-2.71,1.8q-1.09,1.07-2.4,2.5-1.93,2.14-3.69,4.16L966.94,453q3.16,4.74,5.4,7.94t4.25,6a14.57,14.57,0,0,0,2,2.41,7.75,7.75,0,0,0,2.57,1.73,14.16,14.16,0,0,0,1.43.44,11.66,11.66,0,0,0,2.14.29v2Z" transform="translate(-926 -411.89)"/><polygon class="cls-4" points="46 1 73 28 46 28 46 1"/></svg>