<svg id="Layer_1" data-name="Layer 1" xmlns="http://www.w3.org/2000/svg" xmlns:xlink="http://www.w3.org/1999/xlink" viewBox="0 0 74 101"><defs><style>.cls-1,.cls-3{stroke:#7b909f;stroke-width:2px;}.cls-1{fill:url(#linear-gradient);}.cls-2{font-size:22px;fill:#576b79;font-family:Arial;font-weight:700;}.cls-3{stroke-linejoin:bevel;fill:url(#linear-gradient-2);}.cls-4{fill:url(#linear-gradient-3);}</style><linearGradient id="linear-gradient" x1="37" y1="100" x2="37" y2="1" gradientUnits="userSpaceOnUse"><stop offset="0" stop-color="#cad3da"/><stop offset="0.03" stop-color="#cfd7dd"/><stop offset="0.22" stop-color="#e4e9ec"/><stop offset="0.42" stop-color="#f3f5f7"/><stop offset="0.65" stop-color="#fcfdfd"/><stop offset="1" stop-color="#fff"/></linearGradient><linearGradient id="linear-gradient-2" x1="46" y1="28" x2="59.5" y2="14.5" gradientUnits="userSpaceOnUse"><stop offset="0" stop-color="#fff"/><stop offset="0.34" stop-color="#fdfdfd"/><stop offset="0.52" stop-color="#f5f6f7"/><stop offset="0.66" stop-color="#e7ebed"/><stop offset="0.77" stop-color="#d4dade"/><stop offset="0.88" stop-color="#bcc5cb"/><stop offset="0.98" stop-color="#9eabb4"/><stop offset="1" stop-color="#96a4ae"/></linearGradient><linearGradient id="linear-gradient-3" x1="692.78" y1="215.13" x2="692.78" y2="191.51" gradientUnits="userSpaceOnUse"><stop offset="0" stop-color="#8b99a4"/><stop offset="0.39" stop-color="#8997a2"/><stop offset="0.59" stop-color="#81909c"/><stop offset="0.75" stop-color="#748490"/><stop offset="0.89" stop-color="#617380"/><stop offset="0.99" stop-color="#4d6170"/></linearGradient></defs><title>html</title><polygon class="cls-1" points="46 1 73 28 73 100 1 100 1 1 46 1"/><text class="cls-2" transform="translate(7 92)">HTM<tspan x="47.65" y="0">L</tspan></text><polygon class="cls-3" points="46 1 73 28 46 28 46 1"/><path class="cls-4" d="M687.28,196.71l-16.61,6.61,16.61,6.61v5.2l-23-9.14v-5.34l23-9.14v5.2Zm11,13.21,16.61-6.61-16.61-6.61v-5.2l23,9.14V206l-23,9.14v-5.2Z" transform="translate(-656 -156.89)"/></svg>