<svg id="Layer_1" data-name="Layer 1" xmlns="http://www.w3.org/2000/svg" xmlns:xlink="http://www.w3.org/1999/xlink" viewBox="0 0 74 102.54"><defs><style>.cls-1,.cls-4{stroke:#a9512d;stroke-width:2px;}.cls-1{fill:url(#linear-gradient);}.cls-2{font-size:28px;fill:#fff;font-family:Arial;font-weight:700;}.cls-3{fill:url(#linear-gradient-2);}.cls-4{stroke-linejoin:bevel;fill:url(#linear-gradient-3);}</style><linearGradient id="linear-gradient" x1="37" y1="100" x2="37" y2="1" gradientUnits="userSpaceOnUse"><stop offset="0" stop-color="#b2552e"/><stop offset="0.1" stop-color="#bf672f"/><stop offset="0.25" stop-color="#cd7b30"/><stop offset="0.43" stop-color="#d78930"/><stop offset="0.64" stop-color="#dd9131"/><stop offset="1" stop-color="#df9431"/></linearGradient><linearGradient id="linear-gradient-2" x1="242.4" y1="347.7" x2="242.4" y2="302.71" gradientUnits="userSpaceOnUse"><stop offset="0.01" stop-color="#bb5b2c"/><stop offset="0.44" stop-color="#b85a2c"/><stop offset="0.72" stop-color="#b0552a"/><stop offset="0.95" stop-color="#a14d28"/><stop offset="1" stop-color="#9d4b27"/></linearGradient><linearGradient id="linear-gradient-3" x1="46" y1="28" x2="59.5" y2="14.5" gradientUnits="userSpaceOnUse"><stop offset="0" stop-color="#fefce3"/><stop offset="0.4" stop-color="#fdfbe1"/><stop offset="0.54" stop-color="#fbf5da"/><stop offset="0.65" stop-color="#f8eccf"/><stop offset="0.73" stop-color="#f2dfbe"/><stop offset="0.8" stop-color="#eccda8"/><stop offset="0.86" stop-color="#e3b88c"/><stop offset="0.92" stop-color="#d99e6c"/><stop offset="0.97" stop-color="#ce8248"/><stop offset="1" stop-color="#c66e2f"/></linearGradient></defs><title>key</title><polygon class="cls-1" points="46 1 73 28 73 100 1 100 1 1 46 1"/><text class="cls-2" transform="translate(8 92)">KE<tspan x="38.9" y="0">Y</tspan></text><path class="cls-3" d="M235.08,303.47c0-.4.21-0.5,0.61-0.46C235.56,303.24,235.57,303.6,235.08,303.47Zm-2.89.61c0-.3.21-0.3,0.3-0.46C232.08,303.38,231.82,304,232.2,304.08ZM227.48,310c-1-.37,0-0.56-0.15-1.22-1.75-.13-1.32,2.83.15,2.13a1.27,1.27,0,0,1-1.06-.61,1.12,1.12,0,0,1,.46-1.06C226.69,309.9,227.27,310.66,227.48,310Zm0.61-.91c0.88,0.3.32,1.54-.15,1.82C229.46,311.12,229,308.19,228.09,309.09ZM232.5,339c0,0.2,0,1.1.15,0.61C232.67,339.45,232.67,338.54,232.5,339Zm11.25-10.18V332c3.39,0.71,6.73,2.64,7.3,6.08,1,5.83-3.62,8.91-8.06,9.58h-2.28a11.21,11.21,0,0,1-3.19-.91c-0.05-.29,1.26.51,2,0.46a1.37,1.37,0,0,0-.16-0.09c5.45,1.35,8.23-1.79,8.23-1.79L241.5,328.5l-0.83.57-0.71,3.43s-5.62.31-7,5.26c-0.06.17-.13,0.33-0.19,0.51,0,0.38-.19.26-0.15,0,0.85-3.66,3.5-5.52,7.3-6.23v-3c-6.05-.48-12.13.17-17.33-0.46a3.28,3.28,0,0,1,.61-2.58c0.17-4.7,1.18-11.71,1.52-16.41a5.24,5.24,0,0,1,.3-2.28c0.53-.78,2-0.88,2.89-0.61,0.88-.84,1.62-1.82,2.58-2.58,0.59,0.16.6,0.4,1.06,0.15,0.16-.26-0.14-0.37-0.33-0.32,0.87-1,3.39-.15,4-1.2h1.06v0.15a2.2,2.2,0,0,1,1.82.76c-0.45.61-.51,1.62-1.22,2a4.06,4.06,0,0,1-1.67-.3c-0.83.17-.25-1.07-1.06-0.91a5,5,0,0,0-4.71,2.28c7.85,0,15.74.07,23.1,0,2,0,6.41-.35,7.14.76,0.44,0.66.46,3.17,0.61,4.56,0.3,2.88.43,6.09,0.76,9.27,0.17,1.65.19,3.34,0.46,4.56,0.18,0.82.94,1.44,0.61,2.73C256,328.93,250.43,328.78,243.75,328.85Zm-7.45-24.62c-0.12-.63.73-0.29,0.61-0.91C236.46,303.29,236,304,236.3,304.23Zm-0.46-1.06c0,0.2-.62.46-0.15,0.61,0.37-.58-0.25,1,0.15.46-0.19-.61.95-0.66,0.46-1.06a0.46,0.46,0,0,1-.3.3C236,303.35,236,303.17,235.84,303.17Zm-0.76.3c0.49,0.13.48-.23,0.61-0.46C235.29,303,235,303.07,235.08,303.47Zm-2.89.61c0-.3.21-0.3,0.3-0.46C232.08,303.38,231.82,304,232.2,304.08Zm-2.58,1.22c0.21-.72,1.42-0.49,1.06-1.06C230.32,304.44,229.24,305.35,229.61,305.29Zm-2.74,4c-0.18.65,0.39,1.42,0.61,0.76-1-.37,0-0.56-0.15-1.22-1.75-.13-1.32,2.83.15,2.13a1.27,1.27,0,0,1-1.06-.61A1.12,1.12,0,0,1,226.88,309.25Zm1.22-.15c0.88,0.3.32,1.54-.15,1.82C229.46,311.12,229,308.19,228.09,309.09Zm3-5a1.08,1.08,0,0,1,.12-0.17A0.14,0.14,0,0,0,231.13,304.08Zm-0.46.15c-0.35.21-1.44,1.12-1.06,1.06C229.82,304.57,231,304.8,230.67,304.23Zm5-.46c0.37-.58-0.25,1,0.15.46-0.19-.61.95-0.66,0.46-1.06a0.46,0.46,0,0,1-.3.3c0-.12,0-0.3-0.15-0.3C235.87,303.37,235.22,303.63,235.69,303.78Zm0.61,0.46c-0.12-.63.73-0.29,0.61-0.91C236.46,303.29,236,304,236.3,304.23ZM232.7,340a1.11,1.11,0,0,0-.05.66,7,7,0,0,0,4.56,5.78,1.6,1.6,0,0,1-.57-0.35A7.31,7.31,0,0,1,232.7,340Zm13.93,5.53c-0.13-.45-0.38.2-0.76,0,0.58-.59-0.84-1.3.15-1.67-0.06-.39-1.26-0.41-0.46-0.76,0-.29-0.51.18-0.91,0,0.33-.32-0.13-0.49.15-0.76-0.52.3-.78-0.31-1.22-0.46-1.14-.38-2-0.16-2.28-1.22a1.07,1.07,0,0,0-.3.46c-1.16-.9-2.68-2-3.65-2.58-0.32.07-.29-0.22-0.3-0.46-0.6.37-.48-0.41-0.91-0.46,0.15-1.09,1.38-1.93,2.58-2.74,1-.66,1.79-0.79,1.22-2.43-3.65.42-5.88,2.26-7,5.26a8.61,8.61,0,0,0-.29,2.26v0c0.05-.1.12,0,0.1,0.36a7.41,7.41,0,0,0,1.22,2.73c1,1.33,2.34,2,3.5,3.19a1.23,1.23,0,0,1-.76-0.3c-0.09,0-.12.07-0.12,0.11a10.22,10.22,0,0,0,1.94.82c0.26,0.08.5,0.14,0.75,0.2a4.73,4.73,0,0,1-1.36-.67C240.54,346.58,244.71,347,246.63,345.57Zm-5.62-16c-0.28,2.77-.22,6.66-0.61,8.82,0.46,0.14.61,0.6,1.37,0.46a55.81,55.81,0,0,0-.46-9A0.45,0.45,0,0,0,241,329.61Zm-1.06,2.89s-5.62.31-7,5.26C234.06,334.76,236.3,332.93,239.95,332.5Zm0,0s-5.62.31-7,5.26C234.06,334.76,236.3,332.93,239.95,332.5Zm-0.62,14.65a4.73,4.73,0,0,1-1.36-.67c2.56,0.1,6.74.49,8.66-.91-0.13-.45-0.38.2-0.76,0,0.58-.59-0.84-1.3.15-1.67-0.06-.39-1.26-0.41-0.46-0.76,0-.29-0.51.18-0.91,0,0.33-.32-0.13-0.49.15-0.76-0.52.3-.78-0.31-1.22-0.46-1.14-.38-2-0.16-2.28-1.22a1.07,1.07,0,0,0-.3.46c-1.16-.9-2.68-2-3.65-2.58-0.32.07-.29-0.22-0.3-0.46-0.6.37-.48-0.41-0.91-0.46,0.15-1.09,1.38-1.93,2.58-2.74,1-.66,1.79-0.79,1.22-2.43l0.71-3.43,0.83-.57,6.06,16.87S244.78,348.51,239.33,347.16Zm2-17.24a0.45,0.45,0,0,0-.3-0.3c-0.28,2.77-.22,6.66-0.61,8.82,0.46,0.14.61,0.6,1.37,0.46A55.81,55.81,0,0,0,241.31,329.92Zm-2,17.24a4.73,4.73,0,0,1-1.36-.67c2.56,0.1,6.74.49,8.66-.91-0.13-.45-0.38.2-0.76,0,0.58-.59-0.84-1.3.15-1.67-0.06-.39-1.26-0.41-0.46-0.76,0-.29-0.51.18-0.91,0,0.33-.32-0.13-0.49.15-0.76-0.52.3-.78-0.31-1.22-0.46-1.14-.38-2-0.16-2.28-1.22a1.07,1.07,0,0,0-.3.46c-1.16-.9-2.68-2-3.65-2.58-0.32.07-.29-0.22-0.3-0.46-0.6.37-.48-0.41-0.91-0.46,0.15-1.09,1.38-1.93,2.58-2.74,1-.66,1.79-0.79,1.22-2.43l0.71-3.43,0.83-.57,6.06,16.87S244.78,348.51,239.33,347.16Zm2-17.24a0.45,0.45,0,0,0-.3-0.3c-0.28,2.77-.22,6.66-0.61,8.82,0.46,0.14.61,0.6,1.37,0.46A55.81,55.81,0,0,0,241.31,329.92ZM236.75,346a1.23,1.23,0,0,0,.76.3c-1.15-1.16-2.53-1.87-3.5-3.19a7.41,7.41,0,0,1-1.22-2.73c0-.41,0-0.46-0.1-0.36a7.31,7.31,0,0,0,3.93,6.09S236.66,346.06,236.75,346Zm0,0a1.23,1.23,0,0,0,.76.3c-1.15-1.16-2.53-1.87-3.5-3.19a7.41,7.41,0,0,1-1.22-2.73c0-.41,0-0.46-0.1-0.36a7.31,7.31,0,0,0,3.93,6.09S236.66,346.06,236.75,346Z" transform="translate(-206 -283.89)"/><polygon class="cls-4" points="46 1 73 28 46 28 46 1"/></svg>