<svg id="Layer_1" data-name="Layer 1" xmlns="http://www.w3.org/2000/svg" xmlns:xlink="http://www.w3.org/1999/xlink" viewBox="0 0 74 102.54"><defs><style>.cls-1,.cls-3{stroke:#a9512d;stroke-width:2px;}.cls-1{fill:url(#linear-gradient);}.cls-2{font-size:28px;fill:#fff;font-family:Arial;font-weight:700;}.cls-3{stroke-linejoin:bevel;fill:url(#linear-gradient-2);}.cls-4{fill-rule:evenodd;}</style><linearGradient id="linear-gradient" x1="37" y1="100" x2="37" y2="1" gradientUnits="userSpaceOnUse"><stop offset="0" stop-color="#b2552e"/><stop offset="0.1" stop-color="#bf672f"/><stop offset="0.25" stop-color="#cd7b30"/><stop offset="0.43" stop-color="#d78930"/><stop offset="0.64" stop-color="#dd9131"/><stop offset="1" stop-color="#df9431"/></linearGradient><linearGradient id="linear-gradient-2" x1="46" y1="28" x2="59.5" y2="14.5" gradientUnits="userSpaceOnUse"><stop offset="0" stop-color="#fefce3"/><stop offset="0.4" stop-color="#fdfbe1"/><stop offset="0.54" stop-color="#fbf5da"/><stop offset="0.65" stop-color="#f8eccf"/><stop offset="0.73" stop-color="#f2dfbe"/><stop offset="0.8" stop-color="#eccda8"/><stop offset="0.86" stop-color="#e3b88c"/><stop offset="0.92" stop-color="#d99e6c"/><stop offset="0.97" stop-color="#ce8248"/><stop offset="1" stop-color="#c66e2f"/></linearGradient></defs><title>otp</title><polygon class="cls-1" points="46 1 73 28 73 100 1 100 1 1 46 1"/><text class="cls-2" transform="translate(9 92)">OT<tspan x="38.88" y="0">P</tspan></text><polygon class="cls-3" points="46 1 73 28 46 28 46 1"/><path class="cls-4" d="M428.92,320.89h1.95a26.2,26.2,0,0,1,7.27,1.75c4.25-1.85,10.3-.39,14,1-4.83-.47-10.46,0-13.77,1.88-3.32-2.69-9.58-3.41-15.52-2.66A13,13,0,0,1,428.92,320.89Zm-1.43,7.27a13.5,13.5,0,0,0-8.05,2.92c-5.68-2.62-15.55-1.5-19.22,2a1.11,1.11,0,0,0-.58.78,30.78,30.78,0,0,1,11.17-1.49,16.41,16.41,0,0,1,9.29,3.51c4.12-3.72,10.18-5.84,17.92-5.71A22.21,22.21,0,0,0,427.49,328.16Zm-31.49,12" transform="translate(-386 -283.89)"/></svg>