<svg id="Layer_1" data-name="Layer 1" xmlns="http://www.w3.org/2000/svg" xmlns:xlink="http://www.w3.org/1999/xlink" viewBox="0 0 74 102.54"><defs><style>.cls-1{stroke:#7f2023;fill:url(#linear-gradient);}.cls-1,.cls-3{stroke-width:2px;}.cls-2{font-size:28px;fill:#fff;font-family:Arial;font-weight:700;}.cls-3{stroke:#791e20;stroke-linejoin:round;fill:url(#linear-gradient-2);}.cls-4{fill:url(#linear-gradient-3);}.cls-5{fill:url(#linear-gradient-4);}</style><linearGradient id="linear-gradient" x1="37" y1="100" x2="37" y2="1" gradientUnits="userSpaceOnUse"><stop offset="0.01" stop-color="#5e1416"/><stop offset="0.06" stop-color="#71181b"/><stop offset="0.14" stop-color="#861d20"/><stop offset="0.24" stop-color="#972125"/><stop offset="0.36" stop-color="#a32328"/><stop offset="0.53" stop-color="#aa252a"/><stop offset="1" stop-color="#ac252a"/></linearGradient><linearGradient id="linear-gradient-2" x1="46" y1="28" x2="59.5" y2="14.5" gradientUnits="userSpaceOnUse"><stop offset="0" stop-color="#f5ded7"/><stop offset="0.18" stop-color="#f4dbd4"/><stop offset="0.33" stop-color="#f0d1ca"/><stop offset="0.47" stop-color="#eabfba"/><stop offset="0.6" stop-color="#e1a7a4"/><stop offset="0.72" stop-color="#d68887"/><stop offset="0.85" stop-color="#c96263"/><stop offset="0.96" stop-color="#b93539"/><stop offset="1" stop-color="#b3252a"/></linearGradient><linearGradient id="linear-gradient-3" x1="1027.19" y1="606.43" x2="1069.32" y2="564.3" gradientUnits="userSpaceOnUse"><stop offset="0.01" stop-color="#8d1317"/><stop offset="0.45" stop-color="#8b1216"/><stop offset="0.67" stop-color="#830f12"/><stop offset="0.83" stop-color="#760a0c"/><stop offset="0.97" stop-color="#640202"/><stop offset="1" stop-color="#5f0000"/></linearGradient><linearGradient id="linear-gradient-4" x1="1026.56" y1="607.39" x2="1070.19" y2="563.76" xlink:href="#linear-gradient-3"/></defs><title>pdf</title><polygon class="cls-1" points="46 1 73 28 73 100 1 100 1 1 46 1"/><text class="cls-2" transform="translate(8 92)">PDF</text><polygon class="cls-3" points="46 1 73 28 46 28 46 1"/><path class="cls-4" d="M1032.7,592.74c-2.92,3-6.66,5.19-7.82,10,7-1.71,11-9.24,14.93-16,1.6-2.77,3.76-6.39,5.69-10.31,1.6-3.25,4.15-8.38,4.27-11.38,0.21-5.53-4.55-12.66-.36-18.13,2.61-.36,4,0.5,3.55,3.2-0.78-.76-0.55-2.53-2.13-2.49-2.81,2.59-1.2,10.47,0,13.51a26.73,26.73,0,0,0,1.42-7.82c1.25,4.28-.74,7.86-0.36,11.38,1,8.71,8.91,13.95,14.93,17.77,5.78-.24,15.33-1.74,17.78,2.49-0.62.89-1.8-.73-3.2-1.07-3.05-.73-7.68-0.14-11.38-0.36,3.49,2.32,7.9,3.71,13.86,3.56-5.46,3.91-13.27-2.59-18.13-3.2-7-.88-14.79,3.36-21.68,3.91,5.59-2.47,12.44-3.68,19.2-5-5.24-3.76-9.74-8.27-12.09-14.93-1.7,5.72-5.49,12.21-9.24,18.49s-7,12.66-11.73,16a5.79,5.79,0,0,1-6.75.36C1024.06,597.35,1030.24,593.86,1032.7,592.74Z" transform="translate(-1016 -537.89)"/><path class="cls-5" d="M1023.78,604l-0.26.06,0-.17c-0.21-.1-0.41-0.21-0.61-0.33h0l-0.55-.33,0.07-.64c0.78-6.08,7.28-9.55,9.82-10.75h0l1.13,1.61c-2.62,2.66-5.51,4.54-6.94,7.68h0c5.36-2.31,8.95-8.77,12.47-14.92h0c1.61-2.78,3.75-6.37,5.66-10.25h0c1.6-3.21,4.11-8.41,4.16-11h0c0-.1,0-0.21,0-0.33h0c0-3.41-2.06-7.88-2.1-12.34h0a9.6,9.6,0,0,1,1.94-6h0l0.25-.32,0.41-.06a8.89,8.89,0,0,1,1.18-.09h0a3.84,3.84,0,0,1,2.57.8h0a3.23,3.23,0,0,1,1,2.55h0a6.93,6.93,0,0,1-.09,1.08h0l-0.3,1.91-1.38-1.35a5.16,5.16,0,0,1-1-1.84h0c-0.07-.11-0.1-0.18-0.13-0.23h0a7.37,7.37,0,0,0-.89,4h0a23,23,0,0,0,.52,4.61h0a22,22,0,0,0,.46-4.09h0l2-.27a11.6,11.6,0,0,1,.46,3.3h0c0,2.85-.84,5.28-0.83,7.39h0a7.23,7.23,0,0,0,0,.86h0c0.84,8,8.21,13.07,14.21,16.87h0c2.44-.12,5.58-0.44,8.59-0.44h0c4,0,7.94.45,9.78,3.44h0l0.32,0.55-0.37.52a1.54,1.54,0,0,1-.62.54h0l2.32-.06-2.64,1.89a7.78,7.78,0,0,1-4.64,1.43h0c-5.3-.06-10.9-4.12-14.2-4.45h0a14.75,14.75,0,0,0-1.85-.11h0c-6.11,0-13.1,3.47-19.63,4h0l-0.48-1.91c5.13-2.26,11.16-3.46,17.19-4.62h0a31.66,31.66,0,0,1-9.59-11.53h0c-2,5.2-5.25,10.76-8.47,16.15h0c-3.66,6.09-7,12.71-12,16.3h0a7.32,7.32,0,0,1-4.23,1.46h0a6.7,6.7,0,0,1-2.77-.62h0Zm59.2-17.93h0.51a5.66,5.66,0,0,1-1.1-.6h0a4.44,4.44,0,0,0-1.22-.63h0a18.83,18.83,0,0,0-4.2-.35h0c-0.92,0-1.88,0-2.85,0h0a23.75,23.75,0,0,0,8.86,1.55h0Zm-14.89-2.66-0.06,0h0l0.11,0h0Zm-2.5-.58c-1.67-1.07-3.49-2.27-5.26-3.63h0c1.12,1,2.3,1.89,3.53,2.78h0l1.11,0.8,0.62,0.05h0Zm-14.82-18.17c0,0.13,0,.26,0,0.4h0a9.66,9.66,0,0,1-.14,1.18h0l0.33-1.1c0-.12,0-0.24,0-0.36h0a9.11,9.11,0,0,1-.06-0.92h0l-0.14-.35c0,0.38.06,0.76,0.06,1.14h0Z" transform="translate(-1016 -537.89)"/></svg>