<svg id="Layer_1" data-name="Layer 1" xmlns="http://www.w3.org/2000/svg" xmlns:xlink="http://www.w3.org/1999/xlink" viewBox="0 0 74 101.54"><defs><style>.cls-1,.cls-5{stroke:#7b909f;stroke-width:2px;}.cls-1{fill:url(#linear-gradient);}.cls-2{font-size:28px;fill:#576b79;font-family:Arial;font-weight:700;}.cls-3{fill:url(#linear-gradient-2);}.cls-4{fill:url(#linear-gradient-3);}.cls-5{stroke-linejoin:bevel;fill:url(#linear-gradient-4);}</style><linearGradient id="linear-gradient" x1="37" y1="100" x2="37" y2="1" gradientUnits="userSpaceOnUse"><stop offset="0" stop-color="#cad3da"/><stop offset="0.03" stop-color="#cfd7dd"/><stop offset="0.22" stop-color="#e4e9ec"/><stop offset="0.42" stop-color="#f3f5f7"/><stop offset="0.65" stop-color="#fcfdfd"/><stop offset="1" stop-color="#fff"/></linearGradient><linearGradient id="linear-gradient-2" x1="784.14" y1="81.27" x2="784.14" y2="49.89" gradientUnits="userSpaceOnUse"><stop offset="0" stop-color="#b5cbda"/><stop offset="1" stop-color="#576b79"/></linearGradient><linearGradient id="linear-gradient-3" x1="778.54" y1="54.29" x2="778.54" y2="54.24" xlink:href="#linear-gradient-2"/><linearGradient id="linear-gradient-4" x1="46" y1="28" x2="59.5" y2="14.5" gradientUnits="userSpaceOnUse"><stop offset="0" stop-color="#fff"/><stop offset="0.34" stop-color="#fdfdfd"/><stop offset="0.52" stop-color="#f5f6f7"/><stop offset="0.66" stop-color="#e7ebed"/><stop offset="0.77" stop-color="#d4dade"/><stop offset="0.88" stop-color="#bcc5cb"/><stop offset="0.98" stop-color="#9eabb4"/><stop offset="1" stop-color="#96a4ae"/></linearGradient></defs><title>php</title><polygon class="cls-1" points="46 1 73 28 73 100 1 100 1 1 46 1"/><text class="cls-2" transform="translate(8 91)">PH<tspan x="38.9" y="0">P</tspan></text><path class="cls-3" d="M780.91,73.26c2,0.7,5.29.6,7.74,0.34,0.4,1-.21,2.17.17,3.27a4.32,4.32,0,0,0,1.89,1.55c0.23,0.13.51,0.07,0.69,0.17l0.17,0.17a4.89,4.89,0,0,0,1.55.86,6.34,6.34,0,0,0,.88.11,8.72,8.72,0,0,0,1.05,0c1.5-.09,3-0.53,3.4-1.14,0.69-1,.25-3.13.17-5a25.58,25.58,0,0,1,0-5,7.22,7.22,0,0,1,.69-1.38,15.16,15.16,0,0,0,1.38-7.74,29.65,29.65,0,0,0-1-3.44c2,0.17,3.93-.23,5.68,0,1.07,0.14,1.93.84,2.92,0.69a4.23,4.23,0,0,0,.86-1.55,3.27,3.27,0,0,0-.52-2.06c-1.41-.2-2.45,1.07-3.78,1.2-0.39,0-1-.15-1.55-0.17-1.64-.08-3.75.32-5.16,0-1-.24-1.81-1.26-2.75-1.72-0.24-.12-0.56,0-0.86-0.17S794,52,793.81,51.93a28,28,0,0,0-3.27-1,27.16,27.16,0,0,0-7.4-.34,11.75,11.75,0,0,1-2.41.34,3.38,3.38,0,0,1-1.2-.69c-1.77-.82-3.58.13-4.82,0.69A14.33,14.33,0,0,1,772,52.1a22.74,22.74,0,0,1-2.92,0c-1,0-2.21.19-3.27,0.34a9.49,9.49,0,0,0-2.92.69c-1.48.91-1.92,4.81-2.41,7.05-0.19.89-.53,1.69-0.69,2.58a42.43,42.43,0,0,0-.52,5.85c-0.12,3.65-.46,9,1.38,10.32a4,4,0,0,0,2.24.52,2.61,2.61,0,0,0,.69-0.69,5.82,5.82,0,0,0-.17-1.2c0-.82-0.17-1.94-0.17-2.75a13.72,13.72,0,0,1,1-5.68c0-.07.29-0.1,0.34-0.17s0-.38.17-0.52a4.63,4.63,0,0,1,1.55-1,2,2,0,0,1,2.58.86c1.11,1.41,1.31,3.66,1.38,6,0,0.41,0,1,0,1.38a9.29,9.29,0,0,0-.17,1.38c0.28,0.93,1.83,1.34,2.41,1.72a1.61,1.61,0,0,0,.32,1A3.64,3.64,0,0,0,774,80.83c1.61,0.87,5.56.35,6.36-.69a2.28,2.28,0,0,0,.23-0.4,4.09,4.09,0,0,0,.29-0.8C781.27,77,780.64,75.26,780.91,73.26Z" transform="translate(-746 -21.89)"/><path class="cls-4" d="M778.55,54.24l0,0.05" transform="translate(-746 -21.89)"/><polygon class="cls-5" points="46 1 73 28 46 28 46 1"/></svg>