<svg id="Layer_1" data-name="Layer 1" xmlns="http://www.w3.org/2000/svg" xmlns:xlink="http://www.w3.org/1999/xlink" viewBox="0 0 74 102.54"><defs><style>.cls-1,.cls-4{stroke:#a9512d;stroke-width:2px;}.cls-1{fill:url(#linear-gradient);}.cls-2{font-size:28px;fill:#fff;font-family:Arial;font-weight:700;}.cls-3{fill:url(#linear-gradient-2);}.cls-4{stroke-linejoin:bevel;fill:url(#linear-gradient-3);}</style><linearGradient id="linear-gradient" x1="37" y1="100" x2="37" y2="1" gradientUnits="userSpaceOnUse"><stop offset="0" stop-color="#b2552e"/><stop offset="0.1" stop-color="#bf672f"/><stop offset="0.25" stop-color="#cd7b30"/><stop offset="0.43" stop-color="#d78930"/><stop offset="0.64" stop-color="#dd9131"/><stop offset="1" stop-color="#df9431"/></linearGradient><linearGradient id="linear-gradient-2" x1="129.76" y1="342.7" x2="166.89" y2="305.57" gradientUnits="userSpaceOnUse"><stop offset="0.01" stop-color="#bb5b2c"/><stop offset="0.44" stop-color="#b85a2c"/><stop offset="0.72" stop-color="#b0552a"/><stop offset="0.95" stop-color="#a14d28"/><stop offset="1" stop-color="#9d4b27"/></linearGradient><linearGradient id="linear-gradient-3" x1="46" y1="28" x2="59.5" y2="14.5" gradientUnits="userSpaceOnUse"><stop offset="0" stop-color="#fefce3"/><stop offset="0.4" stop-color="#fdfbe1"/><stop offset="0.54" stop-color="#fbf5da"/><stop offset="0.65" stop-color="#f8eccf"/><stop offset="0.73" stop-color="#f2dfbe"/><stop offset="0.8" stop-color="#eccda8"/><stop offset="0.86" stop-color="#e3b88c"/><stop offset="0.92" stop-color="#d99e6c"/><stop offset="0.97" stop-color="#ce8248"/><stop offset="1" stop-color="#c66e2f"/></linearGradient></defs><title>pps</title><polygon class="cls-1" points="46 1 73 28 73 100 1 100 1 1 46 1"/><text class="cls-2" transform="translate(10 92)">PPS</text><path class="cls-3" d="M173.47,316.3a12,12,0,0,1-1.45,6,11.52,11.52,0,0,1-4,4.12,18.82,18.82,0,0,1-6,2.37,36,36,0,0,1-7.6.73H151v11.69a4,4,0,0,0,.4,1.83,2.82,2.82,0,0,0,1.51,1.24,11.81,11.81,0,0,0,1.9.5q1.32,0.26,2.23.35v2.28H134.52v-2.28l2.25-.25a8,8,0,0,0,2-.4,2.86,2.86,0,0,0,1.51-1.14,4,4,0,0,0,.37-1.87V312.2a4.13,4.13,0,0,0-.35-1.77,2.77,2.77,0,0,0-1.52-1.24,11.56,11.56,0,0,0-2.18-.63q-1.36-.28-2-0.37V305.9h22.93q8.05,0,12,2.56A8.67,8.67,0,0,1,173.47,316.3ZM162,317.79q0-4.68-1.89-7t-6.72-2.27H151v18.25h1.23q4.8,0,7.31-2.21T162,317.79Z" transform="translate(-116 -283.89)"/><polygon class="cls-4" points="46 1 73 28 46 28 46 1"/></svg>