<svg id="Layer_1" data-name="Layer 1" xmlns="http://www.w3.org/2000/svg" xmlns:xlink="http://www.w3.org/1999/xlink" viewBox="0 0 74 102.54"><defs><style>.cls-1{stroke:#4b6b7f;fill:url(#linear-gradient);}.cls-1,.cls-3{stroke-width:2px;}.cls-2{font-size:28px;fill:#fff;font-family:Arial;font-weight:700;}.cls-3{stroke:#4a6a7e;stroke-linejoin:bevel;fill:url(#linear-gradient-2);}.cls-4{fill-rule:evenodd;fill:url(#linear-gradient-3);}</style><linearGradient id="linear-gradient" x1="37" y1="1" x2="37" y2="100" gradientUnits="userSpaceOnUse"><stop offset="0" stop-color="#bfd7e8"/><stop offset="0.27" stop-color="#bdd6e7"/><stop offset="0.42" stop-color="#b5d0e2"/><stop offset="0.54" stop-color="#a7c8db"/><stop offset="0.64" stop-color="#93bcd1"/><stop offset="0.74" stop-color="#7aacc3"/><stop offset="0.82" stop-color="#5a98b3"/><stop offset="0.91" stop-color="#35819f"/><stop offset="0.98" stop-color="#0b6789"/><stop offset="1" stop-color="#006083"/></linearGradient><linearGradient id="linear-gradient-2" x1="46" y1="28" x2="59.5" y2="14.5" gradientUnits="userSpaceOnUse"><stop offset="0" stop-color="#edf3f7"/><stop offset="0.36" stop-color="#ebf2f6"/><stop offset="0.5" stop-color="#e4eef4"/><stop offset="0.6" stop-color="#d8e8ef"/><stop offset="0.68" stop-color="#c7dfe9"/><stop offset="0.75" stop-color="#b1d3e1"/><stop offset="0.81" stop-color="#95c4d7"/><stop offset="0.87" stop-color="#74b3cb"/><stop offset="0.92" stop-color="#4e9ebc"/><stop offset="0.97" stop-color="#2488ad"/><stop offset="1" stop-color="#0075a0"/></linearGradient><linearGradient id="linear-gradient-3" x1="-53.51" y1="576.94" x2="-8.35" y2="576.94" gradientTransform="matrix(-1, 0, 0, 1, 747.65, 0)" gradientUnits="userSpaceOnUse"><stop offset="0" stop-color="#689dbd"/><stop offset="0.2" stop-color="#649bbb"/><stop offset="0.39" stop-color="#5894b5"/><stop offset="0.59" stop-color="#4489aa"/><stop offset="0.79" stop-color="#27799b"/><stop offset="0.98" stop-color="#036589"/><stop offset="1" stop-color="#006387"/></linearGradient></defs><title>psd</title><polygon class="cls-1" points="46 1 73 28 73 100 1 100 1 1 46 1"/><text class="cls-2" transform="translate(8 92)">PSD</text><polygon class="cls-3" points="46 1 73 28 46 28 46 1"/><path class="cls-4" d="M795.76,596.38c0.84,0.39-.56.42,0,0h0Zm1.47,2.93c1.09,2.38,2.61,4.34,3.75,6.68,0.8-.92-1.38-2-0.65-3.42C799.07,601.8,799.12,598.9,797.23,599.31Zm-18.57-26.72c-1.57,1.49-4.69,2.24-7.49,2-0.13.67,0.61,1,1,1.46,2.69,3.39,5.5,7.46,8.14,11.08,4.53-.34,6.8,1.56,9.61,2.93-2.32-.56-5.16-2-8.8-1.79,1.55,1.58,2.21,3.7,4.07,5.05,2.16,1.57,5.49.71,8.63,1.63,0.58,0.13.56,0.85,1.14,1,0.46-.18-0.23-0.88-0.49-1.3-9.12-14.71-18.43-30.75-31-42.2,14.5,10.21,22.51,26.9,32.09,42,0.1-1.53.91-3.06,0.82-4.72a9.84,9.84,0,0,0-1.63-4.07c-0.72-1.29-1.33-2.72-2.28-3.42a19.51,19.51,0,0,0,.65,6.19,10.81,10.81,0,0,1-1.3-7.66c-4.66-7-9.36-15.09-15-20.86a24.19,24.19,0,0,1,.49,4.56c-0.7-1.58-.72-3.85-1.3-5.54a54.68,54.68,0,0,0-7.82-6.36,7,7,0,0,0-.49,2.12c-0.29-.8-0.26-1.91-0.49-2.77A38.73,38.73,0,0,0,762,549.3c-1.78-.73-3.83-2-6-1.14-0.1,1.62.53,2.51,0.65,3.91,1.07,1.05,3,1.27,5.21,1.14a6.92,6.92,0,0,1-4.56-.16c0.16,2.1,1.5,3.84,2.44,5.54a90.85,90.85,0,0,0,10.1,14.5A14,14,0,0,0,778.66,572.59Z" transform="translate(-746 -537.89)"/></svg>