<svg id="Layer_1" data-name="Layer 1" xmlns="http://www.w3.org/2000/svg" xmlns:xlink="http://www.w3.org/1999/xlink" viewBox="0 0 74 103.54"><defs><style>.cls-1,.cls-3{stroke:#b09a24;stroke-width:2px;}.cls-1{fill:url(#linear-gradient);}.cls-2{font-size:28px;fill:#95771c;font-family:Arial;font-weight:700;}.cls-3{stroke-linejoin:bevel;fill:url(#linear-gradient-2);}.cls-4{fill:url(#linear-gradient-3);}.cls-5{fill:#fff;}</style><linearGradient id="linear-gradient" x1="37" y1="100" x2="37" y2="1" gradientUnits="userSpaceOnUse"><stop offset="0" stop-color="#e3c32e"/><stop offset="0.07" stop-color="#e7cc4c"/><stop offset="0.19" stop-color="#edd97b"/><stop offset="0.31" stop-color="#f3e5a4"/><stop offset="0.44" stop-color="#f7eec5"/><stop offset="0.57" stop-color="#fbf6de"/><stop offset="0.7" stop-color="#fdfbf1"/><stop offset="0.84" stop-color="#fffefb"/><stop offset="1" stop-color="#fff"/></linearGradient><linearGradient id="linear-gradient-2" x1="46" y1="28" x2="59.5" y2="14.5" gradientUnits="userSpaceOnUse"><stop offset="0.01" stop-color="#fff"/><stop offset="0.25" stop-color="#fffefc"/><stop offset="0.39" stop-color="#fefcf4"/><stop offset="0.51" stop-color="#fcf8e6"/><stop offset="0.62" stop-color="#f9f2d2"/><stop offset="0.71" stop-color="#f5eab8"/><stop offset="0.8" stop-color="#f1e197"/><stop offset="0.88" stop-color="#ecd671"/><stop offset="0.96" stop-color="#e6ca46"/><stop offset="1" stop-color="#e3c32e"/></linearGradient><linearGradient id="linear-gradient-3" x1="148.38" y1="83.76" x2="148.38" y2="25.89" gradientUnits="userSpaceOnUse"><stop offset="0.01" stop-color="#997c1d"/><stop offset="0.53" stop-color="#d4bd2b"/><stop offset="0.64" stop-color="#c4ab27"/><stop offset="1" stop-color="#95771c"/></linearGradient></defs><title>rar</title><polygon class="cls-1" points="46 1 73 28 73 100 1 100 1 1 46 1"/><text class="cls-2" transform="translate(7 93)">RAR</text><polygon class="cls-3" points="46 1 73 28 46 28 46 1"/><path class="cls-4" d="M152.69,37.87h-8.53v-5h8.53v5Zm0,9h-8.53v5h8.53v-5Zm0-21h-8.53v5h8.53v-5Zm0,14h-8.53v5h8.53v-5Zm0,14h-8.53v5h8.53v-5Zm0.75,24.81a5.06,5.06,0,1,1-10.12,0c0-.15,0-0.31,0-0.46h0L145,63.52a3.37,3.37,0,0,1,6.75-.08h0L153.38,78A4.84,4.84,0,0,1,153.44,78.7Zm-1.62-.19A3.47,3.47,0,1,0,148.35,82,3.47,3.47,0,0,0,151.83,78.51Z" transform="translate(-113.69 -21.89)"/><polygon class="cls-5" points="33.5 42 31.25 37.5 31.25 35.25 33.5 33 35.75 33 38 35.25 38 37.5 35.75 42 33.5 42"/></svg>