<svg id="Layer_1" data-name="Layer 1" xmlns="http://www.w3.org/2000/svg" xmlns:xlink="http://www.w3.org/1999/xlink" viewBox="0 0 74 101.54"><defs><style>.cls-1,.cls-11{stroke:#7b909f;stroke-width:2px;}.cls-1{fill:url(#linear-gradient);}.cls-2{font-size:28px;fill:#576b79;font-family:Arial;font-weight:700;}.cls-3{fill:#f2f2f2;}.cls-4{fill:url(#linear-gradient-2);}.cls-5{fill:url(#linear-gradient-3);}.cls-6{fill:url(#linear-gradient-4);}.cls-7{fill:url(#linear-gradient-5);}.cls-8{fill:#fff;}.cls-9{fill:url(#linear-gradient-6);}.cls-10{fill:url(#linear-gradient-7);}.cls-11{stroke-linejoin:bevel;fill:url(#linear-gradient-8);}</style><linearGradient id="linear-gradient" x1="37" y1="100" x2="37" y2="1" gradientUnits="userSpaceOnUse"><stop offset="0" stop-color="#cad3da"/><stop offset="0.03" stop-color="#cfd7dd"/><stop offset="0.22" stop-color="#e4e9ec"/><stop offset="0.42" stop-color="#f3f5f7"/><stop offset="0.65" stop-color="#fcfdfd"/><stop offset="1" stop-color="#fff"/></linearGradient><linearGradient id="linear-gradient-2" x1="29.97" y1="55.72" x2="44.03" y2="41.65" gradientUnits="userSpaceOnUse"><stop offset="0" stop-color="#d0dce5"/><stop offset="0.21" stop-color="#bdccd6"/><stop offset="0.63" stop-color="#8da2b0"/><stop offset="1" stop-color="#5e798b"/></linearGradient><linearGradient id="linear-gradient-3" x1="315" y1="213.01" x2="351" y2="213.01" xlink:href="#linear-gradient-2"/><linearGradient id="linear-gradient-4" x1="29.97" y1="39.97" x2="44.03" y2="25.9" xlink:href="#linear-gradient-2"/><linearGradient id="linear-gradient-5" x1="315" y1="197.26" x2="351" y2="197.26" xlink:href="#linear-gradient-2"/><linearGradient id="linear-gradient-6" x1="29.97" y1="24.22" x2="44.03" y2="10.15" gradientUnits="userSpaceOnUse"><stop offset="0" stop-color="#d0dce5"/><stop offset="0.25" stop-color="#bdccd7"/><stop offset="0.77" stop-color="#8da3b2"/><stop offset="1" stop-color="#758e9f"/></linearGradient><linearGradient id="linear-gradient-7" x1="315" y1="181.51" x2="351" y2="181.51" xlink:href="#linear-gradient-6"/><linearGradient id="linear-gradient-8" x1="46" y1="28" x2="59.5" y2="14.5" gradientUnits="userSpaceOnUse"><stop offset="0" stop-color="#fff"/><stop offset="0.34" stop-color="#fdfdfd"/><stop offset="0.52" stop-color="#f5f6f7"/><stop offset="0.66" stop-color="#e7ebed"/><stop offset="0.77" stop-color="#d4dade"/><stop offset="0.88" stop-color="#bcc5cb"/><stop offset="0.98" stop-color="#9eabb4"/><stop offset="1" stop-color="#96a4ae"/></linearGradient></defs><title>sql</title><polygon class="cls-1" points="46 1 73 28 73 100 1 100 1 1 46 1"/><text class="cls-2" transform="translate(8 91)">SQ<tspan x="40.46" y="0">L</tspan></text><ellipse class="cls-3" cx="37" cy="48.97" rx="18" ry="4.5"/><ellipse class="cls-4" cx="37" cy="48.69" rx="13.5" ry="3.94"/><path class="cls-5" d="M315,205.14v11.25s4.5,4.5,18,4.5,18-4.5,18-4.5V205.14s-2.25,3.94-18,4.22S315,205.14,315,205.14Z" transform="translate(-296 -155.89)"/><ellipse class="cls-3" cx="37" cy="33.22" rx="18" ry="4.5"/><ellipse class="cls-6" cx="37" cy="32.94" rx="13.5" ry="3.94"/><path class="cls-7" d="M315,189.39v11.25s4.5,4.5,18,4.5,18-4.5,18-4.5V189.39s-2.25,3.94-18,4.22S315,189.39,315,189.39Z" transform="translate(-296 -155.89)"/><ellipse class="cls-8" cx="37" cy="17.47" rx="18" ry="4.5"/><ellipse class="cls-9" cx="37" cy="17.19" rx="13.5" ry="3.94"/><path class="cls-10" d="M315,173.64v11.25s4.5,4.5,18,4.5,18-4.5,18-4.5V173.64s-2.25,3.94-18,4.22S315,173.64,315,173.64Z" transform="translate(-296 -155.89)"/><polygon class="cls-11" points="46 1 73 28 46 28 46 1"/></svg>