<svg xmlns="http://www.w3.org/2000/svg" width="26" height="19" viewBox="0 0 26 19">
  <defs>
    <style>
      .cls-1 {
        fill: #fff;
        fill-rule: evenodd;
      }
    </style>
  </defs>
  <path class="cls-1" d="M300.355,380.168a28.922,28.922,0,0,0-5.245-3.3,0.159,0.159,0,0,1-.091-0.144v-3.488a1.623,1.623,0,0,0,.742-1.355v-3.618A3.288,3.288,0,0,0,292.442,365h-0.791a3.288,3.288,0,0,0-3.319,3.261v3.618a1.613,1.613,0,0,0,.742,1.355v3.488a0.159,0.159,0,0,1-.091.144,29.322,29.322,0,0,0-5.244,3.3,1.739,1.739,0,0,0-.652,1.356V384h17.919v-2.476A1.741,1.741,0,0,0,300.355,380.168Zm-15.272-5.214a0.13,0.13,0,0,1-.077-0.124v-2.923a1.372,1.372,0,0,0,.623-1.142v-3.034a2.758,2.758,0,0,0-2.78-2.731h-0.672a2.758,2.758,0,0,0-2.78,2.731v3.034a1.363,1.363,0,0,0,.624,1.142v2.923a0.139,0.139,0,0,1-.078.124,24.013,24.013,0,0,0-4.4,2.772,1.471,1.471,0,0,0-.546,1.135v2.078h6.792a3.044,3.044,0,0,1,1.092-1.8,29.994,29.994,0,0,1,4.454-2.93A23.9,23.9,0,0,0,285.083,374.954Z" transform="translate(-275 -365)"/>
</svg>
