<svg xmlns="http://www.w3.org/2000/svg" xmlns:xlink="http://www.w3.org/1999/xlink" version="1.1" width="612" height="612" xml:space="preserve"><rect id="backgroundrect" width="100%" height="100%" x="0" y="0" fill="none" stroke="none"/>
















<g class="currentLayer"><title>Layer 1</title><g id="svg_1" class="selected" fill="#ffffff" fill-opacity="1">
	<g id="svg_2" fill="#ffffff" fill-opacity="1">
		<g id="Plus" fill="#ffffff" fill-opacity="1">
			<g id="svg_3" fill="#ffffff" fill-opacity="1">
				<path d="M306,0C136.992,0,0,136.992,0,306s136.992,306,306,306c168.988,0,306-136.992,306-306S474.988,0,306,0z M306,535.5      C179.45,535.5,76.5,432.55,76.5,306S179.45,76.5,306,76.5S535.5,179.45,535.5,306S432.55,535.5,306,535.5z M421.133,267.75      H344.25v-76.882c0-20.923-16.964-37.868-37.867-37.868h-0.765c-20.923,0-37.868,16.945-37.868,37.868v76.882h-76.882      c-20.923,0-37.868,16.964-37.868,37.868v0.765c0,20.923,16.945,37.868,37.868,37.868h76.882v76.883      c0,20.923,16.945,37.867,37.868,37.867h0.765c20.923,0,37.867-16.944,37.867-37.867V344.25h76.883      c20.923,0,37.867-16.944,37.867-37.868v-0.765C459,284.714,442.036,267.75,421.133,267.75z" id="svg_4" fill="#ffffff" fill-opacity="1"/>
			</g>
		</g>
	</g>
</g><g id="svg_5">
</g><g id="svg_6">
</g><g id="svg_7">
</g><g id="svg_8">
</g><g id="svg_9">
</g><g id="svg_10">
</g><g id="svg_11">
</g><g id="svg_12">
</g><g id="svg_13">
</g><g id="svg_14">
</g><g id="svg_15">
</g><g id="svg_16">
</g><g id="svg_17">
</g><g id="svg_18">
</g><g id="svg_19">
</g></g></svg>